<svg width="1024" height="1024" viewBox="0 0 1024 1024" fill="none" xmlns="http://www.w3.org/2000/svg">
<path d="M419.041 512C419.041 562.835 461.165 604.045 512 604.045C562.835 604.045 604.959 562.835 604.959 512C604.959 461.165 562.835 419.955 512 419.955C461.165 419.955 419.041 461.165 419.041 512Z" fill="black"/>
<path d="M513.932 477.266C518.083 477.266 522.146 477.799 526.112 478.86C530.088 479.914 533.036 480.953 534.958 481.972V481.972C536.5 482.87 537.023 484.846 536.128 486.39L531.995 493.509C531.265 494.768 529.652 495.21 528.359 494.541V494.541C527.363 494.02 525.503 493.326 522.778 492.456C520.049 491.59 517.504 491.154 515.143 491.154C512.23 491.154 509.983 491.698 508.403 492.778C506.824 493.863 506.034 495.323 506.034 497.162C506.034 498.093 506.403 498.952 507.14 499.737C507.886 500.515 509.158 501.355 510.948 502.251C512.747 503.14 514.336 503.857 515.705 504.397C517.074 504.941 519.18 505.754 522.023 506.834C526.981 508.674 531.211 511.18 534.713 514.345C538.223 517.514 539.978 521.105 539.978 525.121C539.978 528.965 539.188 532.322 537.608 535.192C536.029 538.066 533.857 540.311 531.097 541.936C528.333 543.561 525.279 544.768 521.935 545.554C518.587 546.339 514.959 546.734 511.054 546.734C507.706 546.734 504.419 546.431 501.19 545.83C497.969 545.239 495.275 544.496 493.099 543.607C490.931 542.71 488.979 541.825 487.237 540.955C485.503 540.089 484.235 539.357 483.428 538.763V538.763C482.752 538.267 482.591 537.325 483.062 536.632L488.869 528.098C490.011 526.42 492.328 526.005 494.029 527.114V527.114C495.328 527.953 497.631 529.076 500.944 530.486C504.266 531.889 507.201 532.586 509.755 532.586C517.126 532.586 520.812 530.394 520.812 526.01C520.812 525.09 520.549 524.24 520.022 523.45C519.496 522.665 518.565 521.879 517.232 521.09C515.898 520.304 514.722 519.68 513.704 519.22C512.686 518.76 511.01 518.062 508.684 517.12C506.354 516.169 504.634 515.449 503.524 514.958C498.864 512.958 495.266 510.452 492.73 507.448C490.19 504.443 488.922 501.209 488.922 497.745C488.922 491.728 491.458 486.812 496.539 482.999C501.629 479.178 507.425 477.266 513.932 477.266Z" fill="white"/>
<mask id="mask0_53_376" style="mask-type:alpha" maskUnits="userSpaceOnUse" x="482" y="477" width="58" height="70">
<path d="M513.932 477.266C518.083 477.266 522.146 477.799 526.112 478.86C530.088 479.914 533.036 480.953 534.958 481.972V481.972C536.5 482.87 537.023 484.846 536.128 486.39L531.995 493.509C531.265 494.768 529.652 495.21 528.359 494.541V494.541C527.363 494.02 525.503 493.326 522.778 492.456C520.049 491.59 517.504 491.154 515.143 491.154C512.23 491.154 509.983 491.698 508.403 492.778C506.824 493.863 506.034 495.323 506.034 497.162C506.034 498.093 506.403 498.952 507.14 499.737C507.886 500.515 509.158 501.355 510.948 502.251C512.747 503.14 514.336 503.857 515.705 504.397C517.074 504.941 519.18 505.754 522.023 506.834C526.981 508.674 531.211 511.18 534.713 514.345C538.223 517.514 539.978 521.105 539.978 525.121C539.978 528.965 539.188 532.322 537.608 535.192C536.029 538.066 533.857 540.311 531.097 541.936C528.333 543.561 525.279 544.768 521.935 545.554C518.587 546.339 514.959 546.734 511.054 546.734C507.706 546.734 504.419 546.431 501.19 545.83C497.969 545.239 495.275 544.496 493.099 543.607C490.931 542.71 488.979 541.825 487.237 540.955C485.503 540.089 484.235 539.357 483.428 538.763V538.763C482.752 538.267 482.591 537.325 483.062 536.632L488.869 528.098C490.011 526.42 492.328 526.005 494.029 527.114V527.114C495.328 527.953 497.631 529.076 500.944 530.486C504.266 531.889 507.201 532.586 509.755 532.586C517.126 532.586 520.812 530.394 520.812 526.01C520.812 525.09 520.549 524.24 520.022 523.45C519.496 522.665 518.565 521.879 517.232 521.09C515.898 520.304 514.722 519.68 513.704 519.22C512.686 518.76 511.01 518.062 508.684 517.12C506.354 516.169 504.634 515.449 503.524 514.958C498.864 512.958 495.266 510.452 492.73 507.448C490.19 504.443 488.922 501.209 488.922 497.745C488.922 491.728 491.458 486.812 496.539 482.999C501.629 479.178 507.425 477.266 513.932 477.266Z" fill="black"/>
</mask>
<g mask="url(#mask0_53_376)">
<path d="M550.125 497.294C550.125 496.958 549.853 496.686 549.517 496.686H540.204C539.578 496.686 538.943 496.626 538.329 496.505C520.893 493.069 516.636 489.332 512.75 473.954C512.589 473.315 512.509 472.65 512.509 471.991V464.437C512.509 464.058 512.202 463.75 511.822 463.75V463.75C511.443 463.75 511.135 464.058 511.135 464.437V472.075C511.135 472.742 511.054 473.415 510.891 474.062C506.997 489.422 502.7 493.111 485.093 496.554C484.645 496.641 484.179 496.686 483.722 496.686H477.093C476.757 496.686 476.485 496.958 476.485 497.294V497.294C476.485 497.629 476.757 497.902 477.093 497.902H483.723C484.179 497.902 484.644 497.946 485.092 498.034C502.707 501.474 507 505.163 510.895 520.539C511.056 521.174 511.135 521.835 511.135 522.49V529.978C511.135 530.357 511.443 530.665 511.822 530.665V530.665C512.202 530.665 512.509 530.357 512.509 529.978V522.574C512.509 521.927 512.588 521.274 512.746 520.646C516.633 505.259 520.886 501.52 538.329 498.083C538.943 497.962 539.578 497.902 540.204 497.902H549.517C549.853 497.902 550.125 497.629 550.125 497.294V497.294Z" fill="black"/>
</g>
<path d="M584.35 280.449C584.35 330.723 543.188 371.494 492.391 371.494C441.595 371.494 400.433 330.723 400.433 280.449C400.433 230.176 441.595 189.405 492.391 189.405C543.188 189.405 584.35 230.176 584.35 280.449Z" stroke="white" stroke-opacity="0.4" stroke-width="2"/>
<path d="M492.391 189.843V373.933" stroke="white" stroke-opacity="0.4" stroke-width="2"/>
<path d="M399.433 281.888H585.35" stroke="white" stroke-opacity="0.4" stroke-width="2"/>
<rect x="445.912" y="235.146" width="92.9589" height="92.0449" rx="16" fill="white"/>
<rect x="446.412" y="235.646" width="91.9589" height="91.0449" rx="15.5" stroke="white" stroke-opacity="0.4"/>
<path d="M489.783 258.322C479.071 259.508 470.455 268.291 469.29 278.972C468.126 290.129 474.413 300.098 483.961 303.896C484.66 304.133 485.358 303.658 485.358 302.709V298.911C485.358 298.911 484.427 299.148 483.263 299.148C480.002 299.148 478.605 296.3 478.372 294.639C478.139 293.689 477.674 292.977 476.975 292.265C476.276 292.027 476.044 292.027 476.044 291.79C476.044 291.315 476.742 291.315 476.975 291.315C478.372 291.315 479.537 292.977 480.002 293.689C481.167 295.588 482.564 296.063 483.263 296.063C484.194 296.063 484.893 295.825 485.358 295.588C485.591 293.926 486.29 292.265 487.687 291.315C482.331 290.129 478.372 287.043 478.372 281.821C478.372 279.21 479.537 276.599 481.167 274.7C480.934 274.225 480.701 273.038 480.701 271.377C480.701 270.427 480.701 269.003 481.4 267.579C481.4 267.579 484.66 267.579 487.92 270.665C489.084 270.19 490.714 269.952 492.344 269.952C493.974 269.952 495.605 270.19 497.002 270.665C500.029 267.579 503.522 267.579 503.522 267.579C503.988 269.003 503.988 270.427 503.988 271.377C503.988 273.276 503.755 274.225 503.522 274.7C505.152 276.599 506.317 278.972 506.317 281.821C506.317 287.043 502.358 290.129 497.002 291.315C498.399 292.502 499.33 294.639 499.33 296.775V302.946C499.33 303.658 500.029 304.371 500.961 304.133C509.577 300.573 515.631 292.027 515.631 282.058C515.631 267.816 503.755 256.66 489.783 258.322Z" fill="black"/>
<path d="M489.893 259.315L489.893 259.315L489.901 259.315C503.238 257.728 514.631 268.374 514.631 282.058C514.631 291.582 508.867 299.745 500.66 303.175C500.604 303.183 500.563 303.179 500.534 303.173C500.495 303.164 500.459 303.146 500.428 303.121C500.355 303.061 500.33 302.983 500.33 302.946V296.775C500.33 295.021 499.775 293.244 498.825 291.868C500.971 291.206 502.884 290.201 504.356 288.807C506.208 287.051 507.317 284.714 507.317 281.821C507.317 278.911 506.21 276.468 504.659 274.507C504.86 273.811 504.988 272.816 504.988 271.377V271.345C504.988 270.4 504.988 268.844 504.473 267.268L504.247 266.579H503.522V267.579C503.522 266.579 503.522 266.579 503.521 266.579L503.52 266.579L503.518 266.579L503.513 266.579L503.498 266.579C503.486 266.579 503.472 266.579 503.454 266.58C503.417 266.581 503.368 266.583 503.307 266.587C503.184 266.594 503.013 266.608 502.801 266.635C502.379 266.69 501.791 266.797 501.103 267.009C499.848 267.395 498.255 268.132 496.733 269.533C495.362 269.142 493.845 268.952 492.344 268.952C490.889 268.952 489.383 269.131 488.147 269.521C486.547 268.133 484.967 267.399 483.738 267.011C483.066 266.799 482.5 266.691 482.094 266.636C481.891 266.609 481.727 266.594 481.609 266.587C481.55 266.583 481.503 266.581 481.467 266.58C481.45 266.579 481.435 266.579 481.424 266.579L481.409 266.579L481.404 266.579L481.402 266.579L481.401 266.579C481.4 266.579 481.4 266.579 481.4 267.579V266.579H480.776L480.502 267.138C479.701 268.772 479.701 270.39 479.701 271.341L479.701 271.377C479.701 272.252 479.762 273.016 479.858 273.636C479.906 273.946 479.966 274.239 480.037 274.501C478.475 276.501 477.372 279.135 477.372 281.821C477.372 284.714 478.481 287.051 480.333 288.807C481.777 290.176 483.648 291.169 485.745 291.831C485.077 292.746 484.676 293.825 484.465 294.879C484.151 294.983 483.751 295.063 483.263 295.063C482.969 295.063 481.869 294.821 480.855 293.166L480.847 293.154L480.839 293.142C480.597 292.771 480.14 292.1 479.532 291.515C478.946 290.951 478.065 290.315 476.975 290.315C476.971 290.315 476.966 290.315 476.96 290.315C476.841 290.315 476.487 290.314 476.142 290.415C475.958 290.468 475.692 290.574 475.462 290.796C475.203 291.046 475.044 291.393 475.044 291.79C475.044 292.034 475.112 292.333 475.341 292.593C475.531 292.807 475.758 292.908 475.87 292.953C475.988 293.002 476.124 293.044 476.23 293.076L476.24 293.079L476.264 293.087C476.315 293.103 476.368 293.119 476.424 293.137C476.923 293.679 477.225 294.19 477.39 294.833C477.539 295.82 478.013 297.103 478.922 298.166C479.871 299.277 481.301 300.148 483.263 300.148C483.662 300.148 484.034 300.123 484.358 300.089V302.709C484.358 302.824 484.337 302.893 484.322 302.927C484.317 302.94 484.311 302.949 484.307 302.955C484.304 302.955 484.301 302.954 484.297 302.953C475.19 299.313 469.169 289.78 470.285 279.078C471.4 268.856 479.655 260.45 489.893 259.315ZM476.702 292.335C476.702 292.335 476.702 292.335 476.703 292.334L476.702 292.335Z" stroke="white" stroke-opacity="0.4" stroke-width="2"/>
<path d="M826.915 93.4832C826.915 143.757 785.753 184.528 734.956 184.528C684.159 184.528 642.997 143.757 642.997 93.4832C642.997 43.2097 684.159 2.43823 734.956 2.43823C785.753 2.43823 826.915 43.2097 826.915 93.4832Z" stroke="white" stroke-opacity="0.4" stroke-width="2"/>
<path d="M734.956 2.87646V186.966" stroke="white" stroke-opacity="0.4" stroke-width="2"/>
<path d="M641.997 94.9214H827.915" stroke="white" stroke-opacity="0.4" stroke-width="2"/>
<rect x="688.477" y="48.1799" width="92.9589" height="92.0449" rx="16" fill="#039BE5"/>
<rect x="688.977" y="48.6799" width="91.9589" height="91.0449" rx="15.5" stroke="white" stroke-opacity="0.4"/>
<path d="M734.956 71.1912C728.792 71.1912 722.881 73.6156 718.523 77.931C714.165 82.2464 711.716 88.0994 711.716 94.2024C711.716 100.305 714.165 106.158 718.523 110.474C722.881 114.789 728.792 117.214 734.956 117.214C741.12 117.214 747.031 114.789 751.389 110.474C755.747 106.158 758.196 100.305 758.196 94.2024C758.196 88.0994 755.747 82.2464 751.389 77.931C747.031 73.6156 741.12 71.1912 734.956 71.1912Z" fill="white"/>
<path d="M718.875 78.2863C723.139 74.0641 728.923 71.6912 734.956 71.6912C740.989 71.6912 746.773 74.0641 751.037 78.2863C755.301 82.5083 757.696 88.2336 757.696 94.2024C757.696 100.171 755.301 105.896 751.037 110.118C746.773 114.341 740.989 116.714 734.956 116.714C728.923 116.714 723.139 114.341 718.875 110.118C714.611 105.896 712.216 100.171 712.216 94.2024C712.216 88.2336 714.611 82.5083 718.875 78.2863Z" stroke="white" stroke-opacity="0.4"/>
<path d="M738.102 100.301H744.116L745.061 94.2516H738.101V90.9453C738.101 88.4322 738.93 86.2038 741.304 86.2038H745.119V80.9245C744.449 80.8349 743.031 80.6387 740.353 80.6387C734.759 80.6387 731.48 83.5635 731.48 90.2271V94.2516H725.73V100.301H731.48V116.929C732.619 117.098 733.772 117.213 734.956 117.213C736.026 117.213 737.071 117.116 738.102 116.978V100.301Z" fill="#039BE5"/>
<path d="M738.102 99.8012H737.602V100.301V116.538C736.727 116.644 735.849 116.713 734.956 116.713C733.95 116.713 732.962 116.628 731.98 116.495V100.301V99.8012H731.48H726.23V94.7516H731.48H731.98V94.2516V90.2271C731.98 86.9705 732.781 84.7201 734.177 83.2824C735.571 81.8472 737.639 81.1387 740.353 81.1387C742.521 81.1387 743.849 81.2684 744.619 81.3636V85.7038H741.304C739.924 85.7038 738.965 86.3692 738.379 87.3817C737.813 88.3613 737.601 89.6475 737.601 90.9453V94.2516V94.7516H738.101H744.476L743.688 99.8012H738.102Z" stroke="white" stroke-opacity="0.4"/>
<path d="M269.436 1.43823V185.528" stroke="white" stroke-opacity="0.4" stroke-width="2"/>
<path d="M176.477 93.4832H362.394" stroke="white" stroke-opacity="0.4" stroke-width="2"/>
<path d="M361.394 92.0449C361.394 142.318 320.232 183.09 269.435 183.09C218.639 183.09 177.477 142.318 177.477 92.0449C177.477 41.7715 218.639 1 269.435 1C320.232 1 361.394 41.7715 361.394 92.0449Z" stroke="white" stroke-opacity="0.4" stroke-width="2"/>
<rect x="222.956" y="46.7417" width="92.9589" height="92.0449" rx="16" fill="white"/>
<rect x="223.456" y="47.2417" width="91.9589" height="91.0449" rx="15.5" stroke="white" stroke-opacity="0.4"/>
<path d="M269.436 115.775L260.582 87.9197H278.289L269.436 115.775Z" fill="#E53935"/>
<path d="M277.605 88.4197L269.436 114.125L261.266 88.4197H277.605Z" stroke="white" stroke-opacity="0.4"/>
<path d="M269.436 115.775L289.355 87.9197H278.289L269.436 115.775Z" fill="#FF7043"/>
<path d="M278.655 88.4197H288.383L270.872 112.908L278.655 88.4197Z" stroke="white" stroke-opacity="0.4"/>
<path d="M283.822 69.7529L289.355 87.9197H278.289L283.822 69.7529Z" fill="#E53935"/>
<path d="M278.964 87.4197L283.822 71.469L288.68 87.4197H278.964Z" stroke="white" stroke-opacity="0.4"/>
<path d="M269.436 115.775L289.355 87.9197L292.675 97.6086L269.436 115.775Z" fill="#FFA726"/>
<path d="M292.087 97.4339L271.859 113.247L289.197 89.0005L292.087 97.4339Z" stroke="white" stroke-opacity="0.4"/>
<path d="M269.435 115.775L249.516 87.9197H260.582L269.435 115.775Z" fill="#FF7043"/>
<path d="M260.216 88.4197L267.999 112.908L250.488 88.4197H260.216Z" stroke="white" stroke-opacity="0.4"/>
<path d="M255.049 69.7529L249.516 87.9197H260.582L255.049 69.7529Z" fill="#E53935"/>
<path d="M259.907 87.4197H250.191L255.049 71.469L259.907 87.4197Z" stroke="white" stroke-opacity="0.4"/>
<path d="M269.436 115.775L249.516 87.9197L246.196 97.6086L269.436 115.775Z" fill="#FFA726"/>
<path d="M246.784 97.4339L249.674 89.0005L267.013 113.247L246.784 97.4339Z" stroke="white" stroke-opacity="0.4"/>
<path d="M0.999985 696.09C0.999985 645.816 42.162 605.045 92.9589 605.045C143.756 605.045 184.918 645.816 184.918 696.09C184.918 746.363 143.756 787.135 92.9589 787.135C42.162 787.135 0.999985 746.363 0.999985 696.09Z" stroke="white" stroke-opacity="0.4" stroke-width="2"/>
<path d="M92.959 786.697L92.959 602.607" stroke="white" stroke-opacity="0.4" stroke-width="2"/>
<path d="M185.918 694.652H-1.04904e-05" stroke="white" stroke-opacity="0.4" stroke-width="2"/>
<rect x="46.4795" y="651.506" width="92.9589" height="92.0449" rx="16" fill="black"/>
<rect x="46.9795" y="652.006" width="91.9589" height="91.0449" rx="15.5" stroke="white" stroke-opacity="0.4"/>
<path d="M73.9444 674.517C71.6099 674.517 69.719 676.389 69.719 678.701V716.355C69.719 718.667 71.6099 720.539 73.9444 720.539H111.973C114.308 720.539 116.198 718.667 116.198 716.355V678.701C116.198 676.389 114.308 674.517 111.973 674.517H73.9444ZM79.5398 684.976H89.2821L94.9683 693.026L102.004 684.976H105.07L96.3465 694.979L107.017 710.08H97.2749L90.9657 701.148L83.1751 710.08H80.0597L89.5792 699.191L79.5398 684.976ZM84.2521 687.452L98.5211 707.591H102.301L88.0277 687.452H84.2521Z" fill="white"/>
<path d="M79.5398 684.476H78.5745L79.1313 685.265L88.9438 699.158L79.6833 709.751L78.9584 710.58H80.0597H83.1751H83.4024L83.5519 710.408L90.9243 701.956L96.8665 710.368L97.0159 710.58H97.2749H107.017H107.983L107.426 709.791L96.9816 695.011L105.446 685.305L106.169 684.476H105.07H102.004H101.777L101.627 684.647L95.01 692.218L89.6905 684.688L89.5411 684.476H89.2821H79.5398ZM70.219 678.701C70.219 676.67 71.8813 675.017 73.9444 675.017H111.973C114.036 675.017 115.698 676.67 115.698 678.701V716.355C115.698 718.386 114.036 720.039 111.973 720.039H73.9444C71.8813 720.039 70.219 718.386 70.219 716.355V678.701ZM98.7796 707.091L85.2191 687.952H87.7692L101.334 707.091H98.7796Z" stroke="white" stroke-opacity="0.4"/>
<path d="M269.436 597.573V413.483" stroke="white" stroke-opacity="0.4" stroke-width="2"/>
<path d="M362.394 505.528H176.477" stroke="white" stroke-opacity="0.4" stroke-width="2"/>
<path d="M177.477 506.966C177.477 456.693 218.639 415.921 269.435 415.921C320.232 415.921 361.394 456.693 361.394 506.966C361.394 557.24 320.232 598.011 269.435 598.011C218.639 598.011 177.477 557.24 177.477 506.966Z" stroke="white" stroke-opacity="0.4" stroke-width="2"/>
<rect x="222.956" y="471.73" width="92.9589" height="92.0449" rx="16" fill="#5865F2"/>
<rect x="223.456" y="472.23" width="91.9589" height="91.0449" rx="15.5" stroke="white" stroke-opacity="0.4"/>
<path d="M288.334 499.845C283.809 495.51 276.651 494.775 276.345 494.748C275.869 494.701 275.417 495.018 275.221 495.541C275.203 495.573 275.048 496.001 274.875 496.668C277.868 497.27 281.544 498.481 284.87 500.94C285.403 501.331 285.567 502.167 285.239 502.801C285.021 503.219 284.652 503.446 284.271 503.446C284.066 503.446 283.858 503.377 283.671 503.24C277.952 499.015 270.812 498.804 269.435 498.804C268.059 498.804 260.914 499.015 255.2 503.24C254.667 503.636 253.965 503.441 253.637 502.806C253.304 502.167 253.468 501.336 254.001 500.94C257.327 498.487 261.003 497.27 263.996 496.673C263.823 496.001 263.667 495.578 263.654 495.541C263.454 495.018 263.006 494.69 262.526 494.748C262.22 494.775 255.062 495.51 250.475 499.904C248.082 502.542 243.291 517.96 243.291 531.289C243.291 531.527 243.344 531.755 243.442 531.961C246.745 538.877 255.764 540.685 257.82 540.764C257.828 540.764 257.842 540.764 257.855 540.764C258.219 540.764 258.561 540.558 258.774 540.209L260.852 536.804C255.244 535.08 252.38 532.151 252.216 531.977C251.745 531.485 251.701 530.628 252.118 530.068C252.531 529.507 253.25 529.455 253.721 529.946C253.788 530.02 259.063 535.35 269.435 535.35C279.826 535.35 285.101 529.999 285.154 529.946C285.625 529.46 286.34 529.507 286.757 530.073C287.17 530.634 287.126 531.485 286.655 531.977C286.491 532.151 283.627 535.08 278.019 536.804L280.097 540.209C280.31 540.558 280.652 540.764 281.016 540.764C281.029 540.764 281.042 540.764 281.051 540.764C283.107 540.685 292.126 538.877 295.429 531.961C295.527 531.755 295.58 531.527 295.58 531.289C295.58 517.96 290.789 502.542 288.334 499.845ZM262.047 525.875C259.849 525.875 258.068 523.453 258.068 520.461C258.068 517.468 259.849 515.046 262.047 515.046C264.245 515.046 266.025 517.468 266.025 520.461C266.025 523.453 264.245 525.875 262.047 525.875ZM276.824 525.875C274.626 525.875 272.846 523.453 272.846 520.461C272.846 517.468 274.626 515.046 276.824 515.046C279.022 515.046 280.803 517.468 280.803 520.461C280.803 523.453 279.022 525.875 276.824 525.875Z" fill="white"/>
<path d="M253.193 503.037C253.642 503.903 254.681 504.248 255.497 503.642C261.077 499.517 268.081 499.304 269.435 499.304C270.789 499.304 277.79 499.517 283.374 503.642L283.374 503.642C283.641 503.839 283.952 503.946 284.271 503.946C284.864 503.946 285.391 503.592 285.682 503.032L285.683 503.031C286.11 502.205 285.921 501.092 285.166 500.537C281.957 498.165 278.438 496.934 275.499 496.288C275.529 496.186 275.557 496.097 275.582 496.02C275.612 495.927 275.637 495.855 275.654 495.806C275.661 495.787 275.667 495.772 275.671 495.762L275.676 495.752L275.69 495.716C275.823 495.359 276.091 495.226 276.295 495.246L276.295 495.246L276.302 495.247C276.43 495.258 278.26 495.443 280.612 496.159C282.963 496.876 285.794 498.11 287.975 500.194C288.518 500.799 289.246 502.183 290.036 504.204C290.822 506.214 291.645 508.791 292.393 511.704C293.891 517.534 295.08 524.678 295.08 531.289C295.08 531.451 295.044 531.606 294.978 531.746C293.396 535.057 290.432 537.171 287.566 538.471C284.705 539.768 282.008 540.225 281.041 540.264H281.041H281.041H281.041H281.041H281.041H281.041H281.041H281.041H281.041H281.041H281.041H281.041H281.041H281.04H281.04H281.04H281.04H281.04H281.04H281.04H281.04H281.04H281.04H281.04H281.04H281.04H281.04H281.04H281.039H281.039H281.039H281.039H281.039H281.039H281.039H281.039H281.039H281.039H281.039H281.039H281.039H281.039H281.039H281.038H281.038H281.038H281.038H281.038H281.038H281.038H281.038H281.038H281.038H281.038H281.038H281.038H281.038H281.037H281.037H281.037H281.037H281.037H281.037H281.037H281.037H281.037H281.037H281.037H281.037H281.037H281.037H281.036H281.036H281.036H281.036H281.036H281.036H281.036H281.036H281.036H281.036H281.036H281.036H281.036H281.036H281.035H281.035H281.035H281.035H281.035H281.035H281.035H281.035H281.035H281.035H281.035H281.035H281.035H281.035H281.034H281.034H281.034H281.034H281.034H281.034H281.034H281.034H281.034H281.034H281.034H281.034H281.034H281.034H281.033H281.033H281.033H281.033H281.033H281.033H281.033H281.033H281.033H281.033H281.033H281.033H281.033H281.033H281.032H281.032H281.032H281.032H281.032H281.032H281.032H281.032H281.032H281.032H281.032H281.032H281.032H281.031H281.031H281.031H281.031H281.031H281.031H281.031H281.031H281.031H281.031H281.031H281.031H281.031H281.031H281.03H281.03H281.03H281.03H281.03H281.03H281.03H281.03H281.03H281.03H281.03H281.03H281.03H281.029H281.029H281.029H281.029H281.029H281.029H281.029H281.029H281.029H281.029H281.029H281.029H281.029H281.028H281.028H281.028H281.028H281.028H281.028H281.028H281.028H281.028H281.028H281.028H281.028H281.028H281.028H281.027H281.027H281.027H281.027H281.027H281.027H281.027H281.027H281.027H281.027H281.027H281.027H281.027H281.026H281.026H281.026H281.026H281.026H281.026H281.026H281.026H281.026H281.026H281.026H281.026H281.026H281.025H281.025H281.025H281.025H281.025H281.025H281.025H281.025H281.025H281.025H281.025H281.025H281.025H281.024H281.024H281.024H281.024H281.024H281.024H281.024H281.024H281.024H281.024H281.024H281.024H281.024H281.023H281.023H281.023H281.023H281.023H281.023H281.023H281.023H281.023H281.023H281.023H281.023H281.023H281.022H281.022H281.022H281.022H281.022H281.022H281.022H281.022H281.022H281.022H281.022H281.022H281.022H281.021H281.021H281.021H281.021H281.021H281.021H281.021H281.021H281.021H281.021H281.021H281.021H281.021H281.02H281.02H281.02H281.02H281.02H281.02H281.02H281.02H281.02H281.02H281.02H281.02H281.02H281.019H281.019H281.019H281.019H281.019H281.019H281.019H281.019H281.019H281.019H281.019H281.019H281.018H281.018H281.018H281.018H281.018H281.018H281.018H281.018H281.018H281.018H281.018H281.018H281.018H281.017H281.017H281.017H281.017H281.017H281.017H281.017H281.017H281.017H281.017H281.017H281.017H281.017H281.016H281.016H281.016H281.016H281.016H281.016H281.016H281.016H281.016C280.85 540.264 280.659 540.17 280.523 539.949C280.523 539.948 280.523 539.948 280.523 539.948L278.777 537.086C284.077 535.316 286.81 532.541 287.018 532.321C287.662 531.646 287.711 530.524 287.16 529.777L287.16 529.776C286.872 529.386 286.46 529.15 286.013 529.117C285.567 529.083 285.129 529.255 284.797 529.597C284.609 529.784 279.457 534.85 269.435 534.85C259.262 534.85 254.114 529.633 254.093 529.612L254.093 529.612L254.088 529.606L254.082 529.601C253.749 529.252 253.308 529.08 252.861 529.114C252.415 529.147 252.003 529.382 251.716 529.771C251.16 530.519 251.209 531.647 251.853 532.321C252.063 532.543 254.796 535.317 260.094 537.086L258.348 539.948C258.347 539.948 258.347 539.948 258.347 539.949C258.212 540.17 258.021 540.264 257.855 540.264H257.855H257.855H257.855H257.855H257.855H257.855H257.855H257.854H257.854H257.854H257.854H257.854H257.854H257.854H257.854H257.854H257.854H257.854H257.854H257.854H257.853H257.853H257.853H257.853H257.853H257.853H257.853H257.853H257.853H257.853H257.853H257.853H257.852H257.852H257.852H257.852H257.852H257.852H257.852H257.852H257.852H257.852H257.852H257.852H257.852H257.851H257.851H257.851H257.851H257.851H257.851H257.851H257.851H257.851H257.851H257.851H257.851H257.851H257.85H257.85H257.85H257.85H257.85H257.85H257.85H257.85H257.85H257.85H257.85H257.85H257.85H257.849H257.849H257.849H257.849H257.849H257.849H257.849H257.849H257.849H257.849H257.849H257.849H257.849H257.848H257.848H257.848H257.848H257.848H257.848H257.848H257.848H257.848H257.848H257.848H257.848H257.848H257.847H257.847H257.847H257.847H257.847H257.847H257.847H257.847H257.847H257.847H257.847H257.847H257.847H257.846H257.846H257.846H257.846H257.846H257.846H257.846H257.846H257.846H257.846H257.846H257.846H257.846H257.845H257.845H257.845H257.845H257.845H257.845H257.845H257.845H257.845H257.845H257.845H257.845H257.845H257.844H257.844H257.844H257.844H257.844H257.844H257.844H257.844H257.844H257.844H257.844H257.844H257.844H257.843H257.843H257.843H257.843H257.843H257.843H257.843H257.843H257.843H257.843H257.843H257.843H257.843H257.842H257.842H257.842H257.842H257.842H257.842H257.842H257.842H257.842H257.842H257.842H257.842H257.842H257.842H257.841H257.841H257.841H257.841H257.841H257.841H257.841H257.841H257.841H257.841H257.841H257.841H257.841H257.84H257.84H257.84H257.84H257.84H257.84H257.84H257.84H257.84H257.84H257.84H257.84H257.84H257.839H257.839H257.839H257.839H257.839H257.839H257.839H257.839H257.839H257.839H257.839H257.839H257.839H257.839H257.838H257.838H257.838H257.838H257.838H257.838H257.838H257.838H257.838H257.838H257.838H257.838H257.838H257.838H257.837H257.837H257.837H257.837H257.837H257.837H257.837H257.837H257.837H257.837H257.837H257.837H257.837H257.837H257.836H257.836H257.836H257.836H257.836H257.836H257.836H257.836H257.836H257.836H257.836H257.836H257.836H257.835H257.835H257.835H257.835H257.835H257.835H257.835H257.835H257.835H257.835H257.835H257.835H257.835H257.835H257.835H257.834H257.834H257.834H257.834H257.834H257.834H257.834H257.834H257.834H257.834H257.834H257.834H257.834H257.834H257.833H257.833H257.833H257.833H257.833H257.833H257.833H257.833H257.833H257.833H257.833H257.833H257.833H257.833H257.832H257.832H257.832H257.832H257.832H257.832H257.832H257.832H257.832H257.832H257.832H257.832H257.832H257.832H257.832H257.831H257.831H257.831H257.831H257.831H257.831H257.831H257.831H257.831H257.831H257.831H257.831H257.831H257.831H257.83H257.83H257.83H257.83H257.83H257.83H257.83H257.83H257.83H257.83H257.83H257.83H257.83H257.83H257.83H257.829C256.863 540.225 254.166 539.768 251.305 538.471C248.438 537.171 245.475 535.057 243.893 531.746C243.827 531.605 243.791 531.451 243.791 531.289C243.791 524.678 244.98 517.534 246.47 511.711C247.214 508.801 248.032 506.23 248.809 504.227C249.59 502.214 250.306 500.842 250.834 500.252C253.047 498.138 255.894 496.889 258.253 496.166C260.612 495.443 262.441 495.258 262.569 495.247L262.578 495.246L262.586 495.245C262.777 495.222 263.044 495.348 263.186 495.716C263.2 495.756 263.274 495.961 263.372 496.293C260.432 496.935 256.913 498.17 253.704 500.537L253.702 500.539C252.951 501.098 252.76 502.205 253.193 503.037ZM253.193 503.037C253.193 503.037 253.193 503.036 253.193 503.036L253.637 502.806L253.193 503.037C253.193 503.037 253.193 503.037 253.193 503.037ZM275.678 495.744C275.678 495.744 275.677 495.746 275.676 495.749C275.677 495.745 275.678 495.744 275.678 495.744ZM257.568 520.461C257.568 522.052 258.041 523.512 258.83 524.586C259.62 525.66 260.751 526.375 262.047 526.375C263.343 526.375 264.474 525.66 265.263 524.586C266.052 523.512 266.525 522.052 266.525 520.461C266.525 518.869 266.052 517.409 265.263 516.335C264.474 515.261 263.343 514.546 262.047 514.546C260.751 514.546 259.62 515.261 258.83 516.335C258.041 517.409 257.568 518.869 257.568 520.461ZM272.346 520.461C272.346 522.052 272.818 523.512 273.608 524.586C274.397 525.66 275.528 526.375 276.824 526.375C278.12 526.375 279.251 525.66 280.041 524.586C280.83 523.512 281.303 522.052 281.303 520.461C281.303 518.869 280.83 517.409 280.041 516.335C279.251 515.261 278.12 514.546 276.824 514.546C275.528 514.546 274.397 515.261 273.608 516.335C272.818 517.409 272.346 518.869 272.346 520.461Z" stroke="white" stroke-opacity="0.4"/>
<path d="M14.7986 277.573C14.7986 227.3 55.9606 186.528 106.757 186.528C157.554 186.528 198.716 227.3 198.716 277.573C198.716 327.847 157.554 368.618 106.757 368.618C55.9606 368.618 14.7986 327.847 14.7986 277.573Z" stroke="white" stroke-opacity="0.4" stroke-width="2"/>
<path d="M106.758 368.18L106.758 184.09" stroke="white" stroke-opacity="0.4" stroke-width="2"/>
<path d="M199.716 276.135H13.7986" stroke="white" stroke-opacity="0.4" stroke-width="2"/>
<rect x="60.2781" y="230.832" width="92.9589" height="92.0449" rx="16" fill="#24A1DE"/>
<rect x="60.7781" y="231.332" width="91.9589" height="91.0449" rx="15.5" stroke="white" stroke-opacity="0.4"/>
<path d="M86.6495 273.627C100.952 266.143 119.46 257.018 122.015 255.755C128.717 252.449 130.773 253.083 129.748 260.403C129.012 265.665 126.887 283.085 125.194 293.927C124.189 300.357 121.934 301.119 118.39 298.338C116.685 296.999 108.08 290.231 106.213 288.642C104.508 287.193 102.157 285.451 105.106 282.02C106.155 280.797 113.033 272.985 118.392 266.905C119.094 266.106 118.212 264.795 117.402 265.435C110.179 271.132 100.164 279.04 98.8898 280.07C96.9643 281.626 95.1151 282.339 91.7955 281.205C89.2874 280.348 86.8373 279.326 85.8836 278.936C82.2113 277.436 83.083 275.494 86.6495 273.627Z" fill="white"/>
<path d="M117.402 265.435C110.179 271.132 100.164 279.04 98.8898 280.07C96.9643 281.626 95.1151 282.339 91.7955 281.205C89.5049 280.422 87.2628 279.502 86.1646 279.051C86.0603 279.008 85.9663 278.97 85.8836 278.936C82.2113 277.436 83.083 275.494 86.6495 273.627C100.344 266.461 117.894 257.791 121.604 255.958C121.769 255.877 121.907 255.809 122.015 255.755C128.717 252.449 130.773 253.083 129.748 260.403C129.524 262.007 129.17 264.739 128.74 268.07C127.757 275.67 126.371 286.389 125.194 293.927C124.189 300.357 121.934 301.119 118.39 298.338M117.402 265.435C118.212 264.795 119.094 266.106 118.392 266.905C113.033 272.985 106.155 280.797 105.106 282.02C102.273 285.316 104.332 287.054 106.01 288.47C106.078 288.527 106.146 288.585 106.213 288.642C108.08 290.231 116.685 296.999 118.39 298.338M117.402 265.435L117.092 265.042M117.402 265.435L117.092 265.043M118.39 298.338L118.698 297.944M118.39 298.338L118.698 297.944C118.698 297.944 118.698 297.944 118.698 297.944M118.698 297.944C116.987 296.6 108.395 289.842 106.537 288.261L106.537 288.26C106.467 288.201 106.397 288.143 106.328 288.084C105.96 287.773 105.594 287.464 105.262 287.128C104.871 286.73 104.558 286.322 104.376 285.883C104.199 285.455 104.14 284.98 104.28 284.42C104.423 283.85 104.78 283.165 105.485 282.345L105.485 282.345C106.531 281.126 113.406 273.318 118.767 267.235L118.767 267.235C119.295 266.635 119.216 265.852 118.879 265.351C118.708 265.098 118.448 264.878 118.116 264.796C117.767 264.711 117.404 264.796 117.092 265.042M118.698 297.944C119.562 298.622 120.311 299.054 120.951 299.248C121.579 299.437 122.076 299.392 122.496 299.153C122.933 298.903 123.362 298.4 123.747 297.52C124.131 296.643 124.452 295.436 124.7 293.85M117.092 265.042L117.092 265.043M117.092 265.042L117.092 265.043M117.092 265.043C109.871 270.738 99.8531 278.649 98.5756 279.681C97.6431 280.435 96.7722 280.948 95.7643 281.156C94.7583 281.364 93.5596 281.279 91.9572 280.732L91.9572 280.732C89.6818 279.954 87.4531 279.039 86.3543 278.589C86.25 278.546 86.1558 278.507 86.0728 278.473L86.0727 278.473C85.1854 278.111 84.6309 277.743 84.3246 277.402C84.0357 277.08 83.9786 276.8 84.0397 276.529C84.1089 276.223 84.35 275.844 84.8412 275.407C85.3255 274.976 86.01 274.526 86.8813 274.07C100.57 266.907 118.115 258.24 121.826 256.406C121.99 256.325 122.128 256.257 122.236 256.203C123.904 255.381 125.252 254.819 126.321 254.541C127.404 254.259 128.101 254.296 128.542 254.534C128.955 254.758 129.278 255.234 129.42 256.197C129.563 257.162 129.507 258.517 129.253 260.334L129.253 260.334C129.027 261.946 128.673 264.685 128.242 268.022C127.259 275.621 125.876 286.318 124.7 293.85M124.7 293.85C124.7 293.85 124.7 293.85 124.7 293.85L125.176 293.925L124.7 293.85Z" stroke="white" stroke-opacity="0.4"/>
<rect x="884.562" y="236.584" width="92.9589" height="92.0449" rx="16" fill="white"/>
<rect x="885.062" y="237.084" width="91.9589" height="91.0449" rx="15.5" stroke="white" stroke-opacity="0.4"/>
<path d="M928.459 280.05H907.801V259.595H928.459V280.05Z" fill="#FF5722"/>
<path d="M927.959 279.55H908.301V260.095H927.959V279.55Z" stroke="white" stroke-opacity="0.4"/>
<path d="M954.281 280.05H933.623V259.595H954.281V280.05Z" fill="#4CAF50"/>
<path d="M953.781 279.55H934.123V260.095H953.781V279.55Z" stroke="white" stroke-opacity="0.4"/>
<path d="M954.281 305.618H933.623V285.163H954.281V305.618Z" fill="#FFC107"/>
<path d="M953.781 305.118H934.123V285.663H953.781V305.118Z" stroke="white" stroke-opacity="0.4"/>
<path d="M928.459 305.618H907.801V285.163H928.459V305.618Z" fill="#03A9F4"/>
<path d="M927.959 305.118H908.301V285.663H927.959V305.118Z" stroke="white" stroke-opacity="0.4"/>
<path d="M839.082 283.326C839.082 233.052 880.244 192.281 931.041 192.281C981.838 192.281 1023 233.052 1023 283.326C1023 333.599 981.838 374.371 931.041 374.371C880.244 374.371 839.082 333.599 839.082 283.326Z" stroke="white" stroke-opacity="0.4" stroke-width="2"/>
<path d="M931.041 373.933V189.843" stroke="white" stroke-opacity="0.4" stroke-width="2"/>
<path d="M1024 281.888H838.082" stroke="white" stroke-opacity="0.4" stroke-width="2"/>
<path d="M653.165 506.247C653.165 455.974 694.327 415.202 745.123 415.202C795.92 415.202 837.082 455.974 837.082 506.247C837.082 556.521 795.92 597.292 745.123 597.292C694.327 597.292 653.165 556.521 653.165 506.247Z" stroke="white" stroke-opacity="0.4" stroke-width="2"/>
<path d="M745.123 596.854V412.764" stroke="white" stroke-opacity="0.4" stroke-width="2"/>
<path d="M838.082 504.809H652.165" stroke="white" stroke-opacity="0.4" stroke-width="2"/>
<rect x="698.644" y="459.506" width="92.9589" height="92.0449" rx="16" fill="white"/>
<rect x="699.144" y="460.006" width="91.9589" height="91.0449" rx="15.5" stroke="white" stroke-opacity="0.4"/>
<path d="M766.909 496.386C766.656 496.546 760.618 499.928 760.618 507.426C760.903 515.977 768.237 518.976 768.363 518.976C768.237 519.136 767.256 523.061 764.348 527.175C762.041 530.719 759.48 534.292 755.591 534.292C751.891 534.292 750.563 531.93 746.295 531.93C741.711 531.93 740.414 534.292 736.904 534.292C733.015 534.292 730.264 530.528 727.831 527.017C724.67 522.422 721.983 515.211 721.888 508.288C721.824 504.619 722.521 501.012 724.29 497.949C726.787 493.673 731.246 490.77 736.114 490.674C739.844 490.547 743.164 493.258 745.441 493.258C747.623 493.258 751.702 490.674 756.316 490.674C758.308 490.676 763.62 491.281 766.909 496.386ZM745.126 489.941C744.462 486.591 746.295 483.24 748.002 481.103C750.184 478.518 753.63 476.764 756.601 476.764C756.791 480.115 755.589 483.401 753.44 485.794C751.512 488.378 748.192 490.324 745.126 489.941Z" fill="black"/>
<path d="M756.316 491.174C758.184 491.176 763.04 491.73 766.206 496.237C766.02 496.36 765.785 496.523 765.517 496.726C764.893 497.2 764.087 497.896 763.289 498.83C761.689 500.7 760.118 503.531 760.118 507.426V507.434L760.118 507.443C760.266 511.875 762.245 514.879 764.203 516.767C765.179 517.709 766.151 518.375 766.888 518.805C767.222 519.001 767.51 519.149 767.73 519.253L767.721 519.281C767.691 519.371 767.657 519.472 767.618 519.585C767.465 520.033 767.244 520.657 766.937 521.402C766.322 522.894 765.366 524.868 763.94 526.887L763.935 526.894L763.929 526.902C762.774 528.677 761.586 530.409 760.219 531.699C758.861 532.982 757.365 533.792 755.591 533.792C753.915 533.792 752.768 533.281 751.485 532.71C751.443 532.692 751.401 532.673 751.359 532.654C750.015 532.057 748.537 531.43 746.295 531.43C743.9 531.43 742.355 532.053 740.994 532.654C740.909 532.692 740.824 532.729 740.74 532.767C739.499 533.318 738.433 533.792 736.904 533.792C735.135 533.792 733.591 532.939 732.163 531.606C730.73 530.268 729.462 528.493 728.242 526.733C725.132 522.212 722.481 515.096 722.388 508.281L722.388 508.279C722.325 504.676 723.01 501.165 724.723 498.2C727.143 494.056 731.451 491.266 736.124 491.174L736.124 491.174L736.131 491.174C737.878 491.114 739.553 491.719 741.13 492.38C741.345 492.47 741.561 492.562 741.774 492.653C742.327 492.889 742.869 493.121 743.376 493.306C744.081 493.564 744.782 493.758 745.441 493.758C746.069 493.758 746.797 493.575 747.563 493.331C748.05 493.176 748.583 492.986 749.141 492.787C749.464 492.672 749.795 492.554 750.13 492.439C751.989 491.796 754.096 491.174 756.316 491.174ZM753.068 485.46L753.053 485.477L753.039 485.495C751.259 487.881 748.288 489.642 745.554 489.479C745.13 486.474 746.772 483.445 748.389 481.421C750.372 479.073 753.43 477.456 756.119 477.28C756.165 480.325 755.025 483.28 753.068 485.46Z" stroke="white" stroke-opacity="0.4"/>
<path d="M921.6 765.843V581.753" stroke="white" stroke-opacity="0.4" stroke-width="2"/>
<path d="M1014.56 673.798H828.641" stroke="white" stroke-opacity="0.4" stroke-width="2"/>
<path d="M829.641 675.236C829.641 624.963 870.803 584.191 921.6 584.191C972.397 584.191 1013.56 624.963 1013.56 675.236C1013.56 725.51 972.397 766.281 921.6 766.281C870.803 766.281 829.641 725.51 829.641 675.236Z" stroke="white" stroke-opacity="0.4" stroke-width="2"/>
<rect x="875.121" y="628.494" width="92.9589" height="92.0449" rx="16" fill="white"/>
<rect x="875.621" y="628.994" width="91.9589" height="91.0449" rx="15.5" stroke="white" stroke-opacity="0.4"/>
<path d="M944.539 670.84C944.459 670.356 944.035 670.01 943.545 670.01H942.564C942.537 670.01 942.516 669.989 942.516 669.962V669.962C942.516 669.936 942.494 669.915 942.468 669.915H926.202C923.661 669.915 921.6 671.975 921.6 674.517V674.517C921.6 677.059 923.661 679.119 926.202 679.119H927.028C930.783 679.119 933.237 682.964 930.297 685.299C927.916 687.191 924.893 688.324 921.6 688.324C913.9 688.324 907.656 682.142 907.656 674.517C907.656 666.892 913.9 660.71 921.6 660.71C923.589 660.71 925.477 661.126 927.185 661.871C929.437 662.854 932.206 662.865 933.951 661.137V661.137C935.843 659.263 935.803 656.142 933.515 654.779C930.033 652.704 925.961 651.506 921.6 651.506C908.766 651.506 898.36 661.809 898.36 674.517C898.36 687.225 908.766 697.528 921.6 697.528C934.434 697.528 944.84 687.225 944.84 674.517C944.84 673.265 944.734 672.037 944.539 670.84Z" fill="#FFC107"/>
<path d="M942.564 670.51H943.545C943.801 670.51 944.007 670.689 944.045 670.92C944.237 672.092 944.34 673.293 944.34 674.517C944.34 686.944 934.163 697.028 921.6 697.028C909.037 697.028 898.86 686.944 898.86 674.517C898.86 662.09 909.037 652.006 921.6 652.006C925.868 652.006 929.852 653.179 933.259 655.209C935.201 656.365 935.316 659.082 933.599 660.781C932.056 662.309 929.536 662.352 927.385 661.413C925.615 660.64 923.659 660.21 921.6 660.21C913.628 660.21 907.156 666.611 907.156 674.517C907.156 682.422 913.628 688.824 921.6 688.824C925.01 688.824 928.141 687.65 930.608 685.69C931.425 685.041 931.898 684.261 932.047 683.437C932.195 682.617 932.015 681.799 931.607 681.085C930.796 679.665 929.071 678.619 927.028 678.619H926.202C923.937 678.619 922.1 676.782 922.1 674.517C922.1 672.251 923.937 670.415 926.202 670.415H942.254C942.342 670.475 942.449 670.51 942.564 670.51Z" stroke="white" stroke-opacity="0.4"/>
<path d="M903.11 660.593C901.773 662.333 902.361 664.766 904.136 666.055V666.055C906.445 667.732 909.745 666.727 911.779 664.724C914.297 662.243 917.766 660.71 921.6 660.71C923.588 660.71 925.476 661.126 927.185 661.871C929.436 662.854 932.205 662.865 933.951 661.137V661.137C935.843 659.263 935.802 656.142 933.515 654.779C930.033 652.704 925.961 651.506 921.6 651.506C914.053 651.506 907.353 655.072 903.11 660.593Z" fill="#FF3D00"/>
<path d="M921.6 660.21C917.63 660.21 914.036 661.798 911.428 664.368C910.473 665.308 909.223 666.01 907.957 666.28C906.694 666.55 905.445 666.387 904.43 665.65C902.836 664.493 902.374 662.372 903.507 660.898C907.659 655.496 914.214 652.006 921.6 652.006C925.868 652.006 929.852 653.179 933.259 655.209C935.201 656.365 935.316 659.082 933.599 660.781C932.056 662.309 929.535 662.352 927.385 661.413C925.615 660.64 923.658 660.21 921.6 660.21Z" stroke="white" stroke-opacity="0.4"/>
<path d="M921.6 697.528C925.603 697.528 929.361 696.517 932.644 694.746C935.227 693.354 935.168 689.868 932.919 687.983V687.983C931.203 686.545 928.745 686.569 926.658 687.38C925.091 687.988 923.387 688.324 921.6 688.324C917.678 688.324 914.14 686.717 911.611 684.134C909.565 682.044 906.126 680.985 903.8 682.759V682.759C902.129 684.034 901.58 686.354 902.825 688.047C907.047 693.79 913.877 697.528 921.6 697.528Z" fill="#4CAF50"/>
<path d="M932.407 694.306C929.195 696.039 925.517 697.028 921.6 697.028C914.042 697.028 907.36 693.37 903.228 687.751C902.174 686.318 902.607 684.298 904.103 683.156C905.123 682.378 906.405 682.205 907.705 682.486C909.008 682.768 910.294 683.503 911.254 684.483C913.874 687.159 917.539 688.824 921.6 688.824C923.45 688.824 925.216 688.476 926.839 687.846C928.832 687.071 931.074 687.089 932.598 688.366C933.609 689.213 934.118 690.412 934.094 691.539C934.07 692.655 933.526 693.703 932.407 694.306Z" stroke="white" stroke-opacity="0.4"/>
<path d="M944.539 670.84C944.46 670.356 944.035 670.01 943.545 670.01H942.564C942.537 670.01 942.516 669.989 942.516 669.962V669.962C942.516 669.936 942.494 669.915 942.468 669.915H926.202C923.661 669.915 921.6 671.975 921.6 674.517V674.517C921.6 677.059 923.661 679.119 926.202 679.119H927.028C930.783 679.119 933.232 682.96 930.291 685.293C930.19 685.373 930.088 685.452 929.985 685.529V685.529C929.987 685.527 929.99 685.528 929.992 685.529L932.814 687.894C935.12 689.826 939.234 689.867 940.919 687.375C942.866 684.496 944.84 680.173 944.84 674.517C944.84 673.265 944.734 672.037 944.539 670.84Z" fill="#1976D2"/>
<path d="M933.135 687.511L930.779 685.537C931.488 684.919 931.903 684.195 932.042 683.434C932.191 682.614 932.012 681.797 931.605 681.083C930.795 679.664 929.071 678.619 927.028 678.619H926.202C923.937 678.619 922.1 676.782 922.1 674.517C922.1 672.251 923.937 670.415 926.202 670.415H942.254C942.342 670.475 942.449 670.51 942.564 670.51H943.545C943.801 670.51 944.007 670.689 944.045 670.92C944.237 672.092 944.34 673.293 944.34 674.517C944.34 680.051 942.41 684.278 940.505 687.095C939.775 688.174 938.496 688.739 937.08 688.794C935.663 688.849 934.183 688.389 933.135 687.511Z" stroke="white" stroke-opacity="0.4"/>
<path d="M414.231 789.573C414.231 739.3 455.393 698.528 506.19 698.528C556.987 698.528 598.149 739.3 598.149 789.573C598.149 839.847 556.987 880.618 506.19 880.618C455.393 880.618 414.231 839.847 414.231 789.573Z" stroke="white" stroke-opacity="0.4" stroke-width="2"/>
<path d="M506.19 880.18V696.09" stroke="white" stroke-opacity="0.4" stroke-width="2"/>
<path d="M599.149 788.135H413.231" stroke="white" stroke-opacity="0.4" stroke-width="2"/>
<rect x="459.711" y="742.832" width="92.9589" height="92.0449" rx="16" fill="white"/>
<rect x="460.211" y="743.332" width="91.9589" height="91.0449" rx="15.5" stroke="white" stroke-opacity="0.4"/>
<path d="M488.069 766.456C487.251 766.04 486.599 765.843 485.652 765.843C484.032 765.843 482.95 766.802 482.95 768.479V809.229C482.95 810.906 484.032 811.865 485.652 811.865C486.598 811.865 487.251 811.668 488.069 811.252L515.129 797.583L518.422 793.237L523.825 793.19L527.47 791.349C528.558 790.797 529.43 790.053 529.43 788.854C529.43 787.655 528.558 786.909 527.469 786.357L488.069 766.456Z" fill="#1B5E20"/>
<path d="M487.843 766.902L487.844 766.903L527.243 786.803C528.296 787.337 528.93 787.956 528.93 788.854C528.93 789.751 528.296 790.369 527.245 790.903C527.245 790.903 527.244 790.903 527.244 790.903L523.704 792.691L518.417 792.737L518.171 792.739L518.023 792.935L514.8 797.189L487.844 810.805L487.843 810.806C487.08 811.194 486.504 811.365 485.652 811.365C484.939 811.365 484.398 811.156 484.038 810.814C483.682 810.475 483.45 809.957 483.45 809.229V768.479C483.45 767.751 483.682 767.233 484.038 766.894C484.398 766.552 484.939 766.343 485.652 766.343C486.505 766.343 487.08 766.514 487.843 766.902Z" stroke="white" stroke-opacity="0.4"/>
<path d="M513.529 791.046H497.628V794.333H513.529V791.046Z" fill="#43A047"/>
<path d="M498.128 791.546H513.029V793.833H498.128V791.546Z" stroke="white" stroke-opacity="0.4"/>
<path d="M523.828 793.193L515.131 797.587L509.321 792.141H499.585C494.509 792.141 490.412 788.459 490.412 783.923C490.412 781.655 491.439 779.606 493.09 778.115C494.754 776.625 497.041 775.705 499.585 775.705H513.187C517.345 775.705 520.905 778.378 521.626 782.038L523.828 793.193Z" fill="#43A047"/>
<path d="M509.663 791.776L509.519 791.641H509.321H499.585C494.733 791.641 490.912 788.133 490.912 783.923C490.912 781.812 491.866 779.894 493.425 778.487C494.995 777.081 497.163 776.205 499.585 776.205H513.187C517.145 776.205 520.467 778.746 521.136 782.135L521.136 782.135L523.264 792.918L515.218 796.983L509.663 791.776Z" stroke="white" stroke-opacity="0.4"/>
<path d="M493.908 799.683L501.957 792.141H512.917C517.984 792.141 522.091 788.462 522.091 783.923C522.091 779.384 517.984 775.705 512.917 775.705H498.083C493.929 775.705 490.375 778.376 489.652 782.04L486.808 796.461C486.091 800.091 491.066 802.347 493.908 799.683Z" fill="#00E676"/>
<path d="M501.957 791.641H501.759L501.615 791.776L493.567 799.319C492.315 800.491 490.585 800.592 489.23 799.977C487.878 799.363 486.996 798.091 487.299 796.558L487.299 796.557L490.142 782.137C490.142 782.137 490.142 782.137 490.142 782.137C490.812 778.743 494.129 776.205 498.083 776.205H512.917C517.761 776.205 521.591 779.711 521.591 783.923C521.591 788.135 517.761 791.641 512.917 791.641H501.957Z" stroke="white" stroke-opacity="0.4"/>
<path d="M502.52 782.827H493.958V785.019H502.52V782.827Z" fill="#F1F8E9"/>
<path d="M494.458 783.327H502.02V784.519H494.458V783.327Z" stroke="white" stroke-opacity="0.4"/>
<path d="M499.463 787.758V780.088H497.016V787.758H499.463Z" fill="#F1F8E9"/>
<path d="M498.963 780.588V787.258H497.516V780.588H498.963Z" stroke="white" stroke-opacity="0.4"/>
<path d="M510.165 785.293C511.01 785.293 511.694 784.679 511.694 783.923C511.694 783.166 511.01 782.553 510.165 782.553C509.321 782.553 508.636 783.166 508.636 783.923C508.636 784.679 509.321 785.293 510.165 785.293Z" fill="#F1F8E9"/>
<path d="M511.194 783.923C511.194 784.353 510.787 784.793 510.165 784.793C509.544 784.793 509.136 784.353 509.136 783.923C509.136 783.493 509.544 783.053 510.165 783.053C510.787 783.053 511.194 783.493 511.194 783.923Z" stroke="white" stroke-opacity="0.4"/>
<path d="M516.281 785.293C517.126 785.293 517.81 784.679 517.81 783.923C517.81 783.166 517.126 782.553 516.281 782.553C515.437 782.553 514.752 783.166 514.752 783.923C514.752 784.679 515.437 785.293 516.281 785.293Z" fill="#F1F8E9"/>
<path d="M517.31 783.923C517.31 784.353 516.903 784.793 516.281 784.793C515.66 784.793 515.252 784.353 515.252 783.923C515.252 783.493 515.66 783.053 516.281 783.053C516.903 783.053 517.31 783.493 517.31 783.923Z" stroke="white" stroke-opacity="0.4"/>
<path d="M513.223 782.553C514.068 782.553 514.752 781.94 514.752 781.183C514.752 780.427 514.068 779.814 513.223 779.814C512.379 779.814 511.694 780.427 511.694 781.183C511.694 781.94 512.379 782.553 513.223 782.553Z" fill="#F1F8E9"/>
<path d="M514.252 781.183C514.252 781.613 513.845 782.053 513.223 782.053C512.602 782.053 512.194 781.613 512.194 781.183C512.194 780.753 512.602 780.314 513.223 780.314C513.845 780.314 514.252 780.753 514.252 781.183Z" stroke="white" stroke-opacity="0.4"/>
<path d="M513.223 788.032C514.068 788.032 514.752 787.419 514.752 786.662C514.752 785.906 514.068 785.293 513.223 785.293C512.379 785.293 511.694 785.906 511.694 786.662C511.694 787.419 512.379 788.032 513.223 788.032Z" fill="#F1F8E9"/>
<path d="M514.252 786.662C514.252 787.092 513.845 787.532 513.223 787.532C512.602 787.532 512.194 787.092 512.194 786.662C512.194 786.232 512.602 785.793 513.223 785.793C513.845 785.793 514.252 786.232 514.252 786.662Z" stroke="white" stroke-opacity="0.4"/>
<path d="M735.682 1022.56V838.472" stroke="white" stroke-opacity="0.4" stroke-width="2"/>
<path d="M828.641 930.517H642.723" stroke="white" stroke-opacity="0.4" stroke-width="2"/>
<path d="M643.723 931.955C643.723 881.682 684.885 840.91 735.682 840.91C786.479 840.91 827.641 881.682 827.641 931.955C827.641 982.228 786.479 1023 735.682 1023C684.885 1023 643.723 982.228 643.723 931.955Z" stroke="white" stroke-opacity="0.4" stroke-width="2"/>
<rect x="689.203" y="885.214" width="92.9589" height="92.0449" rx="16" fill="white"/>
<rect x="689.703" y="885.714" width="91.9589" height="91.0449" rx="15.5" stroke="white" stroke-opacity="0.4"/>
<path fill-rule="evenodd" clip-rule="evenodd" d="M726.534 944.249L724.425 945.215C722.616 945.881 721.007 945.696 720.012 945.261C719.016 944.825 719.101 944.271 720.403 943.557L722.412 942.541L719.377 940.904L716.037 939.862C714.027 940.916 712.442 942.138 712.442 943.757C712.442 946.028 715.889 947.693 719.514 948.446C722.895 949.15 726.879 948.91 729.796 948.021L733.465 946.926L730.653 945.415L726.534 944.249ZM737.395 954.247L743.677 951.379L740.722 949.759L737.338 948.689L730.837 951.687L734.752 952.905L737.395 954.247Z" fill="#EDBE00"/>
<path d="M732.162 946.793L729.653 947.541L729.65 947.542C726.813 948.407 722.914 948.644 719.616 947.957L719.616 947.957C717.836 947.587 716.127 946.998 714.877 946.243C713.603 945.473 712.942 944.619 712.942 943.757C712.942 943.127 713.246 942.537 713.837 941.953C714.395 941.402 715.175 940.891 716.087 940.401L719.183 941.367L721.332 942.527L720.177 943.111L720.17 943.115L720.163 943.119C719.819 943.307 719.532 943.497 719.317 943.693C719.108 943.882 718.918 944.12 718.856 944.41C718.788 944.736 718.901 945.026 719.098 945.245C719.279 945.446 719.535 945.597 719.811 945.719C720.929 946.208 722.672 946.393 724.598 945.684L724.616 945.677L724.633 945.669L726.575 944.78L730.465 945.881L732.162 946.793ZM734.979 952.459L734.941 952.44L734.901 952.428L732.228 951.596L737.371 949.224L740.525 950.221L742.563 951.338L737.406 953.692L734.979 952.459Z" stroke="white" stroke-opacity="0.4"/>
<path fill-rule="evenodd" clip-rule="evenodd" d="M755.361 945.967C757.118 945.128 759.26 943.586 758.877 941.531C758.55 939.774 754.503 937.078 749.297 936.72C746.624 936.536 743.903 936.767 740.572 937.927C739.563 938.278 737.396 939.212 737.396 939.212L740.362 940.574L744.356 941.906L747.455 940.508C748.344 940.107 749.427 940.02 750.587 940.138C751.746 940.256 752.93 941.267 751.386 942.126L748.689 943.453L751.867 944.936L755.361 945.967ZM730.571 933.297L726.498 934.979L729.197 936.715L733.051 937.657L737.206 935.785L730.571 933.297Z" fill="#0370C8"/>
<path d="M749.263 937.219L749.262 937.219C746.652 937.039 743.999 937.263 740.737 938.399L749.263 937.219ZM749.263 937.219C751.792 937.393 754.035 938.135 755.676 939.039M749.263 937.219L755.676 939.039M747.455 940.508L747.249 940.052C748.249 939.601 749.43 939.518 750.637 939.641L750.637 939.641C750.987 939.676 751.337 939.778 751.641 939.93C751.94 940.08 752.229 940.294 752.417 940.578C752.615 940.878 752.699 941.261 752.539 941.657C752.391 942.024 752.064 942.321 751.63 942.563L751.619 942.569L751.607 942.575L749.846 943.441L752.044 944.467L755.317 945.433C756.117 945.034 756.953 944.501 757.558 943.861C758.203 943.18 758.537 942.435 758.386 941.623L747.455 940.508ZM747.455 940.508L747.249 940.052L744.329 941.37L740.546 940.108L738.635 939.231M747.455 940.508L738.635 939.231M738.635 939.231C738.688 939.208 738.742 939.186 738.798 939.163C739.467 938.885 740.248 938.569 740.737 938.399L738.635 939.231ZM755.676 939.039C756.496 939.491 757.155 939.977 757.621 940.443M755.676 939.039L757.621 940.443M757.621 940.443C758.098 940.918 758.331 941.328 758.386 941.623L757.621 940.443ZM735.895 935.827L733.003 937.131L729.397 936.249L727.573 935.076L730.579 933.834L735.895 935.827Z" stroke="white" stroke-opacity="0.4"/>
<path fill-rule="evenodd" clip-rule="evenodd" d="M743.678 951.379L755.361 945.967L748.687 943.454L737.338 948.687L743.678 951.379ZM733.466 946.925L726.535 944.248L737.396 939.211L744.356 941.905L733.466 946.925ZM722.413 942.541L733.052 937.657L726.498 934.979L716.037 939.862L722.413 942.541Z" fill="#16979D"/>
<path d="M748.707 943.995L754.069 946.014L743.67 950.832L738.573 948.668L748.707 943.995ZM743.075 941.946L733.448 946.383L727.814 944.206L737.414 939.754L743.075 941.946ZM726.511 935.524L731.796 937.683L722.404 941.995L717.27 939.838L726.511 935.524Z" stroke="white" stroke-opacity="0.4"/>
<path fill-rule="evenodd" clip-rule="evenodd" d="M737.395 954.247L729.796 951.28V908.225L735.953 910.226C743.8 913.228 748.848 915.351 748.848 925.755C748.848 933.875 745.429 936.865 740.387 933.999V918.829C740.387 915.406 737.426 915.079 737.426 917.679L737.395 954.247Z" fill="#CF1928"/>
<path d="M736.896 953.515L736.926 917.679L736.896 953.515ZM736.896 953.515L730.296 950.938V908.913M736.896 953.515L730.296 908.913M730.296 908.913L735.786 910.698C739.728 912.206 742.84 913.454 744.993 915.571C747.111 917.655 748.348 920.64 748.348 925.755C748.348 929.781 747.494 932.376 746.165 933.633C745.515 934.247 744.738 934.558 743.834 934.562C742.982 934.565 741.995 934.295 740.887 933.704V918.829C740.887 917.008 740.089 915.775 739.027 915.51C738.49 915.377 737.938 915.519 737.533 915.93C737.137 916.331 736.926 916.94 736.926 917.679L730.296 908.913Z" stroke="white" stroke-opacity="0.4"/>
<path d="M174.572 930.517C174.572 880.243 215.734 839.472 266.53 839.472C317.327 839.472 358.489 880.243 358.489 930.517C358.489 980.79 317.327 1021.56 266.53 1021.56C215.734 1021.56 174.572 980.79 174.572 930.517Z" stroke="white" stroke-opacity="0.4" stroke-width="2"/>
<path d="M266.531 1021.12V837.034" stroke="white" stroke-opacity="0.4" stroke-width="2"/>
<path d="M359.489 929.079H173.572" stroke="white" stroke-opacity="0.4" stroke-width="2"/>
<rect x="220.051" y="883.775" width="92.9589" height="92.0449" rx="16" fill="white"/>
<rect x="220.551" y="884.275" width="91.9589" height="91.0449" rx="15.5" stroke="white" stroke-opacity="0.4"/>
<path d="M289.77 929.798C289.77 934.826 288.143 939.474 285.366 943.259C284.599 944.329 283.728 945.33 282.775 946.239C278.58 950.301 272.852 952.809 266.53 952.809C260.209 952.809 254.481 950.301 250.286 946.239C249.333 945.33 248.462 944.329 247.695 943.259C244.918 939.474 243.291 934.826 243.291 929.798C243.291 923.251 246.045 917.36 250.472 913.172C251.634 912.067 252.912 911.089 254.283 910.25C257.839 908.052 262.034 906.786 266.53 906.786C271.027 906.786 275.222 908.052 278.778 910.25C280.149 911.089 281.427 912.067 282.589 913.172C287.016 917.36 289.77 923.251 289.77 929.798Z" fill="url(#paint0_radial_53_376)"/>
<path d="M284.963 942.963L284.963 942.963L284.96 942.968C284.211 944.012 283.36 944.99 282.43 945.877L282.427 945.88C278.322 949.855 272.717 952.309 266.53 952.309C260.344 952.309 254.739 949.855 250.634 945.88L250.631 945.877C249.701 944.99 248.85 944.012 248.101 942.968L248.098 942.963C245.382 939.261 243.791 934.716 243.791 929.798C243.791 923.395 246.483 917.633 250.815 913.535L250.816 913.534C251.952 912.454 253.203 911.498 254.544 910.676L254.546 910.675C258.025 908.525 262.129 907.286 266.53 907.286C270.932 907.286 275.036 908.525 278.515 910.675L278.517 910.676C279.858 911.498 281.109 912.454 282.245 913.534L282.246 913.535C286.578 917.633 289.27 923.395 289.27 929.798C289.27 934.716 287.679 939.261 284.963 942.963Z" stroke="white" stroke-opacity="0.4"/>
<path d="M285.366 943.259C284.6 944.329 283.728 945.33 282.775 946.239C282.694 945.537 282.415 943.397 281.637 941.878C279.894 938.427 272.341 929.222 266.531 925.195C260.721 929.222 253.168 938.427 251.425 941.878C250.646 943.397 250.367 945.537 250.286 946.239C249.333 945.33 248.462 944.329 247.695 943.259C247.66 942.546 247.707 941.533 247.939 940.153C248.799 935.01 257.816 921.744 260.721 919.443C256.77 915.531 252.819 913.793 250.472 913.172C251.634 912.067 252.912 911.089 254.283 910.25C260.895 910.353 264.265 912.574 266.531 913.69C268.797 912.574 272.166 910.353 278.778 910.25C280.149 911.089 281.427 912.067 282.589 913.172C280.242 913.793 276.291 915.531 272.341 919.443C275.246 921.744 284.263 935.01 285.122 940.153C285.355 941.533 285.401 942.546 285.366 943.259Z" fill="url(#paint1_radial_53_376)"/>
<path d="M250.979 941.652C250.407 942.769 250.095 944.183 249.93 945.176C249.305 944.519 248.721 943.821 248.189 943.089C248.168 942.425 248.22 941.494 248.432 940.236L248.432 940.235C248.634 939.029 249.328 937.292 250.337 935.296C251.338 933.313 252.628 931.115 253.984 929.002C255.34 926.889 256.758 924.866 258.015 923.231C259.284 921.582 260.359 920.367 261.031 919.834L261.473 919.484L261.073 919.087C257.501 915.551 253.918 913.752 251.462 912.945C252.384 912.135 253.374 911.402 254.421 910.752C260.013 910.867 263.191 912.522 265.417 913.681C265.732 913.845 266.029 914 266.31 914.138L266.531 914.247L266.752 914.138C267.033 914 267.329 913.845 267.644 913.681C269.87 912.522 273.048 910.867 278.64 910.752C279.687 911.402 280.677 912.135 281.6 912.945C279.143 913.752 275.561 915.551 271.989 919.087L271.588 919.484L272.03 919.834C272.703 920.367 273.778 921.582 275.046 923.231C276.304 924.866 277.722 926.889 279.078 929.002C280.434 931.115 281.723 933.313 282.725 935.296C283.733 937.292 284.428 939.029 284.629 940.235L284.629 940.236C284.841 941.494 284.893 942.425 284.873 943.089C284.34 943.821 283.757 944.519 283.131 945.176C282.967 944.183 282.655 942.769 282.082 941.652C281.181 939.867 278.822 936.664 275.985 933.423C273.143 930.176 269.77 926.832 266.816 924.784L266.531 924.587L266.246 924.784C263.291 926.832 259.919 930.176 257.076 933.423C254.24 936.664 251.881 939.867 250.979 941.652Z" stroke="white" stroke-opacity="0.4"/>
<defs>
<radialGradient id="paint0_radial_53_376" cx="0" cy="0" r="1" gradientUnits="userSpaceOnUse" gradientTransform="translate(266.53 923.395) scale(47.3335 46.8681)">
<stop stop-color="#DFE9F2"/>
<stop offset="0.543" stop-color="#D6E0E9"/>
<stop offset="1" stop-color="#BFC8D1"/>
</radialGradient>
<radialGradient id="paint1_radial_53_376" cx="0" cy="0" r="1" gradientUnits="userSpaceOnUse" gradientTransform="translate(266.404 919.117) scale(22.9957 22.7696)">
<stop stop-color="#4CAF50"/>
<stop offset="0.489" stop-color="#4AAF50"/>
<stop offset="0.665" stop-color="#43AD50"/>
<stop offset="0.79" stop-color="#38AA50"/>
<stop offset="0.892" stop-color="#27A550"/>
<stop offset="0.978" stop-color="#11A050"/>
<stop offset="1" stop-color="#0A9E50"/>
</radialGradient>
</defs>
</svg>
