<svg width="859" height="840" viewBox="0 0 859 840" fill="none" xmlns="http://www.w3.org/2000/svg">
<mask id="path-1-inside-1_49_76" fill="white">
<path d="M762.609 607.808L810.609 579.712V635.904L762.609 664V607.808Z"/>
</mask>
<path d="M810.609 635.904V639.904L814.061 637.883V633.883L810.609 635.904ZM762.609 664L759.157 666.021V670.021L762.609 668V664ZM807.157 581.732V637.925L814.061 633.883V577.691L807.157 581.732ZM810.609 631.904L762.609 660V668L810.609 639.904V631.904ZM766.061 661.979V605.787L759.157 609.828V666.021L766.061 661.979Z" fill="white" fill-opacity="0.1" mask="url(#path-1-inside-1_49_76)"/>
<mask id="path-3-inside-2_49_76" fill="white">
<path d="M715 580.096L763 552L811 580.096L763 608.192L715 580.096Z"/>
</mask>
<path d="M715 580.096L711.548 578.075L708.096 580.096L711.548 582.117L715 580.096ZM763 552L766.452 549.979L763 547.959L759.548 549.979L763 552ZM811 580.096L814.452 582.117L817.904 580.096L814.452 578.075L811 580.096ZM763 608.192L759.548 610.213L763 612.233L766.452 610.213L763 608.192ZM718.452 582.117L766.452 554.021L759.548 549.979L711.548 578.075L718.452 582.117ZM759.548 554.021L807.548 582.117L814.452 578.075L766.452 549.979L759.548 554.021ZM807.548 578.075L759.548 606.171L766.452 610.213L814.452 582.117L807.548 578.075ZM766.452 606.171L718.452 578.075L711.548 582.117L759.548 610.213L766.452 606.171Z" fill="white" fill-opacity="0.1" mask="url(#path-3-inside-2_49_76)"/>
<mask id="path-5-inside-3_49_76" fill="white">
<path d="M715.239 579.712L763.239 607.808V664L715.239 635.904V579.712Z"/>
</mask>
<path d="M715.239 635.904L711.787 633.883V637.883L715.239 639.904V635.904ZM763.239 660L715.239 631.904V639.904L763.239 668V660ZM718.691 637.925V581.733L711.787 577.691V633.883L718.691 637.925Z" fill="white" fill-opacity="0.1" mask="url(#path-5-inside-3_49_76)"/>
<mask id="path-7-inside-4_49_76" fill="white">
<path d="M96.6089 629.808L144.609 601.712V657.904L96.6089 686V629.808Z"/>
</mask>
<path d="M144.609 657.904V661.904L148.061 659.883V655.883L144.609 657.904ZM96.6089 686L93.1568 688.021V692.021L96.6089 690V686ZM141.157 603.732V659.925L148.061 655.883V599.691L141.157 603.732ZM144.609 653.904L96.6089 682V690L144.609 661.904V653.904ZM100.061 683.979V627.787L93.1568 631.828V688.021L100.061 683.979Z" fill="white" fill-opacity="0.1" mask="url(#path-7-inside-4_49_76)"/>
<mask id="path-9-inside-5_49_76" fill="white">
<path d="M49 602.096L97 574L145 602.096L97 630.192L49 602.096Z"/>
</mask>
<path d="M49 602.096L45.5479 600.075L42.0958 602.096L45.5479 604.117L49 602.096ZM97 574L100.452 571.979L97 569.959L93.5479 571.979L97 574ZM145 602.096L148.452 604.117L151.904 602.096L148.452 600.075L145 602.096ZM97 630.192L93.5479 632.213L97 634.233L100.452 632.213L97 630.192ZM52.4521 604.117L100.452 576.021L93.5479 571.979L45.5479 600.075L52.4521 604.117ZM93.5479 576.021L141.548 604.117L148.452 600.075L100.452 571.979L93.5479 576.021ZM141.548 600.075L93.5479 628.171L100.452 632.213L148.452 604.117L141.548 600.075ZM100.452 628.171L52.4521 600.075L45.5479 604.117L93.5479 632.213L100.452 628.171Z" fill="white" fill-opacity="0.1" mask="url(#path-9-inside-5_49_76)"/>
<mask id="path-11-inside-6_49_76" fill="white">
<path d="M49.2393 601.712L97.2393 629.808V686L49.2393 657.904V601.712Z"/>
</mask>
<path d="M49.2393 657.904L45.7872 655.883V659.883L49.2393 661.904V657.904ZM97.2393 682L49.2393 653.904V661.904L97.2393 690V682ZM52.6914 659.925V603.733L45.7872 599.691V655.883L52.6914 659.925Z" fill="white" fill-opacity="0.1" mask="url(#path-11-inside-6_49_76)"/>
<mask id="path-13-inside-7_49_76" fill="white">
<path d="M94.6089 249.808L142.609 221.712V277.904L94.6089 306V249.808Z"/>
</mask>
<path d="M142.609 277.904V281.904L146.061 279.883V275.883L142.609 277.904ZM94.6089 306L91.1568 308.021V312.021L94.6089 310V306ZM139.157 223.732V279.925L146.061 275.883V219.691L139.157 223.732ZM142.609 273.904L94.6089 302V310L142.609 281.904V273.904ZM98.061 303.979V247.787L91.1568 251.828V308.021L98.061 303.979Z" fill="white" fill-opacity="0.5" mask="url(#path-13-inside-7_49_76)"/>
<mask id="path-15-inside-8_49_76" fill="white">
<path d="M47 222.096L95 194L143 222.096L95 250.192L47 222.096Z"/>
</mask>
<path d="M47 222.096L43.5479 220.075L40.0958 222.096L43.5479 224.117L47 222.096ZM95 194L98.4521 191.979L95 189.959L91.5479 191.979L95 194ZM143 222.096L146.452 224.117L149.904 222.096L146.452 220.075L143 222.096ZM95 250.192L91.5479 252.213L95 254.233L98.4521 252.213L95 250.192ZM50.4521 224.117L98.4521 196.021L91.5479 191.979L43.5479 220.075L50.4521 224.117ZM91.5479 196.021L139.548 224.117L146.452 220.075L98.4521 191.979L91.5479 196.021ZM139.548 220.075L91.5479 248.171L98.4521 252.213L146.452 224.117L139.548 220.075ZM98.4521 248.171L50.4521 220.075L43.5479 224.117L91.5479 252.213L98.4521 248.171Z" fill="white" fill-opacity="0.5" mask="url(#path-15-inside-8_49_76)"/>
<mask id="path-17-inside-9_49_76" fill="white">
<path d="M47.2393 221.712L95.2393 249.808V306L47.2393 277.904V221.712Z"/>
</mask>
<path d="M47.2393 277.904L43.7872 275.883V279.883L47.2393 281.904V277.904ZM95.2393 302L47.2393 273.904V281.904L95.2393 310V302ZM50.6914 279.925V223.733L43.7872 219.691V275.883L50.6914 279.925Z" fill="white" fill-opacity="0.5" mask="url(#path-17-inside-9_49_76)"/>
<mask id="path-19-inside-10_49_76" fill="white">
<path d="M762.609 221.808L810.609 193.712V249.904L762.609 278V221.808Z"/>
</mask>
<path d="M810.609 249.904V253.904L814.061 251.883V247.883L810.609 249.904ZM762.609 278L759.157 280.021V284.021L762.609 282V278ZM807.157 195.732V251.925L814.061 247.883V191.691L807.157 195.732ZM810.609 245.904L762.609 274V282L810.609 253.904V245.904ZM766.061 275.979V219.787L759.157 223.828V280.021L766.061 275.979Z" fill="white" fill-opacity="0.5" mask="url(#path-19-inside-10_49_76)"/>
<mask id="path-21-inside-11_49_76" fill="white">
<path d="M715 194.096L763 166L811 194.096L763 222.192L715 194.096Z"/>
</mask>
<path d="M715 194.096L711.548 192.075L708.096 194.096L711.548 196.117L715 194.096ZM763 166L766.452 163.979L763 161.959L759.548 163.979L763 166ZM811 194.096L814.452 196.117L817.904 194.096L814.452 192.075L811 194.096ZM763 222.192L759.548 224.213L763 226.233L766.452 224.213L763 222.192ZM718.452 196.117L766.452 168.021L759.548 163.979L711.548 192.075L718.452 196.117ZM759.548 168.021L807.548 196.117L814.452 192.075L766.452 163.979L759.548 168.021ZM807.548 192.075L759.548 220.171L766.452 224.213L814.452 196.117L807.548 192.075ZM766.452 220.171L718.452 192.075L711.548 196.117L759.548 224.213L766.452 220.171Z" fill="white" fill-opacity="0.5" mask="url(#path-21-inside-11_49_76)"/>
<mask id="path-23-inside-12_49_76" fill="white">
<path d="M715.239 193.712L763.239 221.808V278L715.239 249.904V193.712Z"/>
</mask>
<path d="M715.239 249.904L711.787 247.883V251.883L715.239 253.904V249.904ZM763.239 274L715.239 245.904V253.904L763.239 282V274ZM718.691 251.925V195.733L711.787 191.691V247.883L718.691 251.925Z" fill="white" fill-opacity="0.5" mask="url(#path-23-inside-12_49_76)"/>
<mask id="path-25-inside-13_49_76" fill="white">
<path d="M429.609 55.8079L477.609 27.7119V83.9039L429.609 112V55.8079Z"/>
</mask>
<path d="M477.609 83.9039V87.9039L481.061 85.8832V81.8832L477.609 83.9039ZM429.609 112L426.157 114.021V118.021L429.609 116V112ZM474.157 29.7325V85.9245L481.061 81.8832V25.6912L474.157 29.7325ZM477.609 79.9039L429.609 108V116L477.609 87.9039V79.9039ZM433.061 109.979V53.7872L426.157 57.8285V114.021L433.061 109.979Z" fill="white" fill-opacity="0.5" mask="url(#path-25-inside-13_49_76)"/>
<mask id="path-27-inside-14_49_76" fill="white">
<path d="M382 28.096L430 2.43996e-06L478 28.096L430 56.192L382 28.096Z"/>
</mask>
<path d="M382 28.096L378.548 26.0754L375.096 28.096L378.548 30.1166L382 28.096ZM430 2.43996e-06L433.452 -2.02063L430 -4.04126L426.548 -2.02063L430 2.43996e-06ZM478 28.096L481.452 30.1166L484.904 28.096L481.452 26.0754L478 28.096ZM430 56.192L426.548 58.2126L430 60.2333L433.452 58.2126L430 56.192ZM385.452 30.1166L433.452 2.02064L426.548 -2.02063L378.548 26.0754L385.452 30.1166ZM426.548 2.02064L474.548 30.1166L481.452 26.0754L433.452 -2.02063L426.548 2.02064ZM474.548 26.0754L426.548 54.1714L433.452 58.2126L481.452 30.1166L474.548 26.0754ZM433.452 54.1714L385.452 26.0754L378.548 30.1166L426.548 58.2126L433.452 54.1714Z" fill="white" fill-opacity="0.5" mask="url(#path-27-inside-14_49_76)"/>
<mask id="path-29-inside-15_49_76" fill="white">
<path d="M382.239 27.712L430.239 55.808V112L382.239 83.904V27.712Z"/>
</mask>
<path d="M382.239 83.904L378.787 81.8834V85.8834L382.239 87.904V83.904ZM430.239 108L382.239 79.904V87.904L430.239 116V108ZM385.691 85.9246V29.7326L378.787 25.6913V81.8834L385.691 85.9246Z" fill="white" fill-opacity="0.5" mask="url(#path-29-inside-15_49_76)"/>
<path d="M430 147L651.703 275V531L430 659L208.298 531V275L430 147Z" fill="black"/>
<rect width="143.547" height="141.785" rx="16" transform="matrix(0.86954 -0.493862 0 1 430.18 407.215)" fill="white"/>
<rect width="143.547" height="143.547" rx="16" transform="matrix(0.86954 -0.493862 0.86954 0.493862 302.378 331.892)" fill="white"/>
<rect width="143.547" height="141.785" rx="16" transform="matrix(0.86954 0.493862 0 1 299 336.323)" fill="white"/>
<path d="M513 774L701 664" stroke="white" stroke-opacity="0.1" stroke-width="2"/>
<path d="M167 677L356.263 784.813" stroke="white" stroke-opacity="0.1" stroke-width="2"/>
<path d="M763 306L764.263 523.813" stroke="white" stroke-opacity="0.5" stroke-width="2"/>
<path d="M93.9999 331L95.2627 548.813" stroke="white" stroke-opacity="0.5" stroke-width="2"/>
<path d="M493 93L682.263 200.813" stroke="white" stroke-opacity="0.5" stroke-width="2"/>
<path d="M168 208L356 98" stroke="white" stroke-opacity="0.5" stroke-width="2"/>
</svg>
