<svg width="841" height="533" viewBox="0 0 841 533" fill="none" xmlns="http://www.w3.org/2000/svg">
<rect width="395.706" height="63.6609" transform="matrix(0.79698 -0.604006 0 1 524 309.968)" fill="white" fill-opacity="0.5"/>
<rect width="526.64" height="63.6609" transform="matrix(0.991189 0.132455 0 1 2 238.728)" fill="white" fill-opacity="0.5"/>
<rect width="395.706" height="523.971" transform="matrix(0.79698 -0.604006 0.991189 0.132455 6 239.009)" fill="white"/>
<path d="M333.803 138.256C347.128 124.931 364.181 113.15 384.964 102.915C405.746 92.6791 428.562 85.0941 453.413 80.1599C456.065 79.5925 457.925 79.5863 458.992 80.1411C460.059 80.696 460.705 81.4399 460.931 82.3728C461.156 83.3057 460.721 84.2642 459.626 85.2481C458.531 86.2321 456.812 86.9641 454.469 87.4442C432.192 91.6492 411.533 98.467 392.492 107.898C373.451 117.328 357.827 128.142 345.62 140.34C333.414 152.537 326.063 164.697 323.569 176.821C321.075 188.944 323.979 199.881 332.281 209.632C333.3 210.699 333.404 211.753 332.596 212.793C331.787 213.833 330.513 214.644 328.774 215.225C326.909 215.931 325.145 216.25 323.48 216.181C321.816 216.112 320.572 215.559 319.747 214.52C310.8 203.774 307.575 191.707 310.074 178.319C312.573 164.93 320.483 151.576 333.803 138.256ZM361.574 143.153C378.545 126.182 401.99 113.163 431.91 104.095C461.831 95.0268 489.889 92.8023 516.085 97.4214C525.933 99.1579 531.928 102.838 534.07 108.462C536.212 114.087 534.071 120.106 527.647 126.521C521.223 132.936 512.427 137.853 501.26 141.272C490.093 144.692 479.572 145.537 469.698 143.808C463.199 142.661 456.192 143.236 448.679 145.531C441.167 147.827 435.274 151.114 431.003 155.395C426.732 159.675 425.272 163.745 426.622 167.603C427.972 171.461 431.897 173.963 438.397 175.109C457.502 178.478 477.072 177.675 497.105 172.702C517.138 167.729 535.432 159.976 551.988 149.445C553.71 148.418 555.449 147.837 557.205 147.703C558.961 147.569 560.501 147.767 561.825 148.296C562.952 148.791 563.631 149.502 563.862 150.43C564.092 151.358 563.445 152.352 561.92 153.414C543.725 165.585 522.845 174.473 499.28 180.077C475.715 185.682 452.906 186.54 430.855 182.651C421.007 180.915 414.997 177.193 412.826 171.487C410.654 165.781 412.774 159.722 419.186 153.311C425.597 146.9 434.413 142.022 445.635 138.677C456.858 135.333 467.393 134.529 477.241 136.265C483.741 137.411 490.78 136.804 498.358 134.443C505.936 132.083 511.858 128.765 516.125 124.489C520.391 120.214 521.822 116.178 520.42 112.382C519.017 108.585 515.058 106.113 508.542 104.964C485.695 100.935 461.148 102.892 434.903 110.833C408.658 118.775 388.119 130.162 373.285 144.996C358.452 159.829 353.472 173.96 358.347 187.389C363.222 200.818 376.984 209.529 399.635 213.523C404.362 214.357 410.555 215.115 418.214 215.797C425.873 216.479 435.495 216.587 447.081 216.122C449.231 216.058 450.777 216.366 451.718 217.046C452.659 217.727 452.92 218.625 452.5 219.74C452.08 220.854 451.06 221.819 449.439 222.633C447.819 223.448 446.023 223.909 444.052 224.017C434.485 224.548 425.505 224.553 417.111 224.031C408.717 223.509 400.476 222.538 392.388 221.118C366.192 216.499 350.298 206.56 344.704 191.301C339.111 176.042 344.734 159.992 361.574 143.153ZM304.849 133.151C312.895 125.105 322.276 117.517 332.993 110.387C343.71 103.256 355.511 96.6125 368.396 90.4557C370.513 89.4979 372.356 89.0451 373.925 89.0971C375.495 89.1491 376.778 89.4878 377.775 90.1131C378.772 90.7383 379.226 91.5579 379.139 92.5717C379.052 93.5856 377.885 94.6367 375.638 95.7252C363.658 101.45 352.689 107.613 342.732 114.216C332.775 120.818 324.087 127.824 316.667 135.234C309.376 142.525 303.542 149.925 299.165 157.435C294.789 164.944 292.247 172.407 291.54 179.824C291.519 181.003 290.761 182.052 289.267 182.972C287.773 183.892 285.983 184.463 283.896 184.687C281.81 184.91 280.258 184.785 279.241 184.31C278.224 183.834 277.718 183.006 277.723 181.824C278.854 173.742 281.678 165.59 286.195 157.366C290.712 149.142 296.93 141.07 304.849 133.151ZM390.232 148.206C401.923 136.515 418.137 127.544 438.873 121.293C459.61 115.042 478.936 113.496 496.851 116.655C498.624 116.967 499.709 117.564 500.108 118.444C500.506 119.325 500.133 120.333 498.989 121.468C497.983 122.473 496.564 123.258 494.73 123.822C492.896 124.386 491.089 124.511 489.309 124.197C474.537 121.592 458.69 122.903 441.768 128.129C424.846 133.355 411.607 140.742 402.05 150.29C392.493 159.837 389.267 168.915 392.372 177.525C395.477 186.134 404.407 191.74 419.164 194.342C435.118 197.155 450.421 197.783 465.073 196.226C479.725 194.67 496.054 191.486 514.062 186.676C515.998 186.13 517.753 185.996 519.329 186.274C520.905 186.552 521.906 187.172 522.334 188.135C522.762 189.097 522.472 190.081 521.467 191.087C520.461 192.093 518.99 192.869 517.054 193.414C497.426 198.678 479.283 202.169 462.626 203.887C445.968 205.605 428.967 204.937 411.621 201.885C393.698 198.724 382.727 191.91 378.71 181.442C374.693 170.974 378.533 159.895 390.232 148.206ZM447.95 158.605C449.082 157.474 450.585 156.665 452.461 156.18C454.337 155.694 456.06 155.593 457.63 155.876C472.403 158.48 487.91 157.222 504.152 152.101C520.395 146.98 533.041 139.894 542.092 130.843C542.846 130.088 543.816 129.002 545.002 127.585C546.188 126.167 547.338 124.67 548.453 123.092C549.19 121.891 550.414 120.959 552.124 120.297C553.834 119.634 555.694 119.335 557.705 119.4C559.533 119.426 560.723 119.858 561.276 120.695C561.829 121.532 561.8 122.488 561.188 123.563C559.91 125.999 558.475 128.074 556.883 129.786C555.291 131.499 554.3 132.546 553.91 132.926C542.722 144.114 527.101 152.785 507.047 158.937C486.993 165.09 468.006 166.583 450.088 163.418C448.512 163.14 447.48 162.55 446.993 161.648C446.505 160.746 446.824 159.731 447.95 158.605Z" fill="black"/>
<rect x="1.77786" y="-0.484919" width="111.029" height="174.375" transform="matrix(0.786669 -0.617375 0.991189 0.132455 0.859918 463.148)" stroke="white" stroke-opacity="0.5" stroke-width="2"/>
<mask id="path-6-inside-1_50_113" fill="white">
<path d="M88.9163 392.69L177.833 322.909L352.653 346.271L263.737 416.052L88.9163 392.69Z"/>
</mask>
<path d="M90.8986 392.955L179.815 323.174L175.85 322.644L86.9339 392.425L90.8986 392.955ZM350.671 346.006L261.754 415.787L265.719 416.317L354.635 346.536L350.671 346.006Z" fill="white" fill-opacity="0.5" mask="url(#path-6-inside-1_50_113)"/>
<mask id="path-8-inside-2_50_113" fill="white">
<path d="M174.821 485.833L263.737 416.052L438.557 439.414L349.641 509.195L174.821 485.833Z"/>
</mask>
<path d="M438.557 439.414L440.54 439.678L442.113 438.444L440.131 438.179L438.557 439.414ZM349.641 509.195L348.068 510.429L350.05 510.694L351.623 509.46L349.641 509.195ZM262.163 417.287L436.984 440.648L440.131 438.179L265.31 414.817L262.163 417.287ZM436.575 439.149L347.659 508.93L351.623 509.46L440.54 439.678L436.575 439.149ZM351.214 507.96L176.394 484.598L173.247 487.068L348.068 510.429L351.214 507.96Z" fill="white" fill-opacity="0.5" mask="url(#path-8-inside-2_50_113)"/>
<mask id="path-10-inside-3_50_113" fill="white">
<path d="M263.737 416.052L352.653 346.271L527.474 369.633L438.557 439.414L263.737 416.052Z"/>
</mask>
<path d="M525.491 369.368L436.575 439.149L440.54 439.679L529.456 369.897L525.491 369.368Z" fill="white" fill-opacity="0.5" mask="url(#path-10-inside-3_50_113)"/>
<mask id="path-12-inside-4_50_113" fill="white">
<path d="M349.641 509.195L438.557 439.414L613.378 462.775L524.462 532.556L349.641 509.195Z"/>
</mask>
<path d="M613.378 462.775L615.36 463.04L616.934 461.805L614.951 461.541L613.378 462.775ZM524.462 532.556L522.888 533.791L524.871 534.056L526.444 532.821L524.462 532.556ZM436.984 440.648L611.805 464.01L614.951 461.541L440.131 438.179L436.984 440.648ZM611.396 462.51L522.479 532.292L526.444 532.821L615.36 463.04L611.396 462.51ZM526.035 531.322L351.214 507.96L348.068 510.429L522.888 533.791L526.035 531.322Z" fill="white" fill-opacity="0.5" mask="url(#path-12-inside-4_50_113)"/>
<mask id="path-14-inside-5_50_113" fill="white">
<path d="M438.557 439.414L527.474 369.633L702.294 392.994L613.378 462.775L438.557 439.414Z"/>
</mask>
<path d="M702.294 392.994L704.277 393.259L705.85 392.024L703.868 391.76L702.294 392.994ZM525.9 370.867L700.721 394.229L703.868 391.76L529.047 368.398L525.9 370.867ZM700.312 392.729L611.396 462.511L615.36 463.04L704.277 393.259L700.312 392.729Z" fill="white" fill-opacity="0.5" mask="url(#path-14-inside-5_50_113)"/>
<mask id="path-16-inside-6_50_113" fill="white">
<path d="M527.474 369.633L616.39 299.851L791.21 323.213L702.294 392.994L527.474 369.633Z"/>
</mask>
<path d="M791.21 323.213L793.193 323.478L794.766 322.243L792.784 321.978L791.21 323.213ZM614.817 301.086L789.637 324.448L792.784 321.978L617.963 298.617L614.817 301.086ZM789.228 322.948L700.312 392.729L704.277 393.259L793.193 323.478L789.228 322.948Z" fill="white" fill-opacity="0.5" mask="url(#path-16-inside-6_50_113)"/>
</svg>
