<svg width="514" height="514" viewBox="0 0 514 514" fill="none" xmlns="http://www.w3.org/2000/svg">
<path d="M1 102.769H41.3604V267.256H1V102.769Z" fill="white" stroke="black" stroke-opacity="0.5"/>
<path d="M119.554 505.418L18.6817 405.253H410.621V1L492.243 57.2681V513L119.554 505.418Z" fill="white"/>
<path d="M492.243 513L119.554 505.418L18.6817 405.253H410.621M492.243 513V57.2681L410.621 1V405.253M492.243 513L410.621 405.253" stroke="black"/>
<path d="M513 299.206V150.103L461.54 113.495V273.567L513 299.206Z" fill="white"/>
<path d="M461.54 113.495L428.435 102.769V273.567H461.54V113.495Z" fill="black"/>
<path d="M513 299.206L461.54 273.567H428.435L489.553 299.206H513Z" fill="white"/>
<path d="M513 299.206V150.103L461.54 113.495M513 299.206L461.54 273.567M513 299.206H489.553L428.435 273.567M461.54 273.567C461.54 211.055 461.54 189.943 461.54 113.495M461.54 273.567H428.435M461.54 273.567V113.495M461.54 113.495L428.435 102.769V273.567" stroke="black" stroke-opacity="0.5"/>
<path d="M18.6817 404.92V2.57781H409.985V404.92H18.6817Z" fill="black" stroke="black"/>
<mask id="path-7-inside-1_42_84" fill="white">
<path d="M202.105 234.516C206.523 234.516 210.173 238.122 209.441 242.48C207.689 252.92 202.522 262.647 194.569 270.218C184.621 279.687 171.128 285.006 157.06 285.006C142.992 285.006 129.499 279.687 119.552 270.218C111.598 262.647 106.431 252.92 104.679 242.48C103.948 238.122 107.597 234.516 112.015 234.516L157.06 234.516H202.105Z"/>
</mask>
<path d="M202.105 234.516C206.523 234.516 210.173 238.122 209.441 242.48C207.689 252.92 202.522 262.647 194.569 270.218C184.621 279.687 171.128 285.006 157.06 285.006C142.992 285.006 129.499 279.687 119.552 270.218C111.598 262.647 106.431 252.92 104.679 242.48C103.948 238.122 107.597 234.516 112.015 234.516L157.06 234.516H202.105Z" fill="#D9D9D9" stroke="black" stroke-width="2" mask="url(#path-7-inside-1_42_84)"/>
<path d="M228.824 136.692C228.824 150.37 218.022 161.437 204.724 161.437C191.425 161.437 180.623 150.37 180.623 136.692C180.623 123.013 191.425 111.947 204.724 111.947C218.022 111.947 228.824 123.013 228.824 136.692Z" fill="#D9D9D9" stroke="black"/>
<mask id="mask0_42_84" style="mask-type:alpha" maskUnits="userSpaceOnUse" x="180" y="111" width="50" height="51">
<path d="M228.824 136.692C228.824 150.37 218.022 161.437 204.724 161.437C191.425 161.437 180.623 150.37 180.623 136.692C180.623 123.013 191.425 111.947 204.724 111.947C218.022 111.947 228.824 123.013 228.824 136.692Z" fill="#D9D9D9" stroke="black"/>
</mask>
<g mask="url(#mask0_42_84)">
<rect x="197.536" y="141.181" width="17.4505" height="36.8675" rx="8.72523" fill="black" stroke="black"/>
</g>
<path d="M122.734 136.692C122.734 150.37 111.932 161.437 98.6336 161.437C85.3353 161.437 74.533 150.37 74.533 136.692C74.533 123.013 85.3353 111.947 98.6336 111.947C111.932 111.947 122.734 123.013 122.734 136.692Z" fill="#D9D9D9" stroke="black"/>
<mask id="mask1_42_84" style="mask-type:alpha" maskUnits="userSpaceOnUse" x="74" y="111" width="50" height="51">
<path d="M122.734 136.692C122.734 150.37 111.932 161.437 98.6336 161.437C85.3353 161.437 74.533 150.37 74.533 136.692C74.533 123.013 85.3353 111.947 98.6336 111.947C111.932 111.947 122.734 123.013 122.734 136.692Z" fill="#D9D9D9" stroke="black"/>
</mask>
<g mask="url(#mask1_42_84)">
<rect x="89.9084" y="140.814" width="17.4505" height="36.8675" rx="8.72523" fill="black" stroke="black"/>
</g>
</svg>
