<svg width="186" height="228" viewBox="0 0 186 228" fill="none" xmlns="http://www.w3.org/2000/svg">
<path d="M186 0H0V228H186V0Z" fill="#242526"/>
<path d="M101.029 2C114.252 2 127.195 3.71756 139.831 7.14034C152.495 10.5384 161.888 13.887 168.01 17.1739L176.899 22.4131L154.368 61.707C152.607 60.6937 150.146 59.3592 146.988 57.7034C143.815 56.0229 137.888 53.7864 129.208 50.9815C120.514 48.1889 112.407 46.7802 104.887 46.7802C95.6062 46.7802 88.4497 48.5349 83.4178 52.0194C78.3859 55.5163 75.8699 60.2242 75.8699 66.1553C75.8699 69.158 77.0441 71.9259 79.3923 74.459C81.7685 76.9673 85.8219 79.6734 91.5248 82.5649C97.2555 85.4316 102.315 87.7423 106.676 89.4846C111.037 91.2392 117.747 93.8588 126.804 97.3433C142.599 103.274 156.073 111.356 167.227 121.562C178.409 131.781 184 143.359 184 156.309C184 168.703 181.484 179.527 176.452 188.782C171.42 198.049 164.501 205.29 155.71 210.53C146.904 215.769 137.175 219.661 126.524 222.194C115.86 224.727 104.3 226 91.8602 226C81.1954 226 70.7262 225.024 60.4388 223.084C50.1793 221.181 41.5971 218.784 34.6642 215.917C27.7593 213.026 21.5393 210.171 15.9903 207.366C10.4692 204.574 6.42966 202.214 3.85779 200.298L0 197.432L27.8432 156.012C30.2194 157.767 33.4901 160.004 37.6275 162.734C41.7648 165.44 49.103 169.061 59.656 173.608C70.237 178.131 79.588 180.38 87.7229 180.38C111.205 180.38 122.946 173.312 122.946 159.176C122.946 156.21 122.108 153.467 120.43 150.921C118.753 148.388 115.79 145.855 111.541 143.31C107.291 140.777 103.545 138.763 100.303 137.28C97.0599 135.797 91.7204 133.548 84.3124 130.508C76.8903 127.444 71.4111 125.121 67.8748 123.539C53.0307 117.089 41.5691 109.008 33.4901 99.3204C25.3971 89.6328 21.3576 79.2039 21.3576 68.0335C21.3576 48.6337 29.4366 32.7802 45.6226 20.4854C61.8365 8.16593 80.3008 2 101.029 2Z" fill="white"/>
<mask id="mask0_6_20" style="mask-type:alpha" maskUnits="userSpaceOnUse" x="0" y="2" width="184" height="224">
<path d="M101.029 2C114.252 2 127.195 3.71756 139.831 7.14034C152.495 10.5384 161.888 13.887 168.01 17.1739L176.899 22.4131L154.368 61.707C152.607 60.6937 150.146 59.3592 146.988 57.7034C143.815 56.0229 137.888 53.7864 129.208 50.9815C120.514 48.1889 112.407 46.7802 104.887 46.7802C95.6062 46.7802 88.4497 48.5349 83.4178 52.0194C78.3859 55.5163 75.8699 60.2242 75.8699 66.1553C75.8699 69.158 77.0441 71.9259 79.3923 74.459C81.7685 76.9673 85.8219 79.6734 91.5248 82.5649C97.2555 85.4316 102.315 87.7423 106.676 89.4846C111.037 91.2392 117.747 93.8588 126.804 97.3433C142.599 103.274 156.073 111.356 167.227 121.562C178.409 131.781 184 143.359 184 156.309C184 168.703 181.484 179.527 176.452 188.782C171.42 198.049 164.501 205.29 155.71 210.53C146.904 215.769 137.175 219.661 126.524 222.194C115.86 224.727 104.3 226 91.8602 226C81.1954 226 70.7262 225.024 60.4388 223.084C50.1793 221.181 41.5971 218.784 34.6642 215.917C27.7593 213.026 21.5393 210.171 15.9903 207.366C10.4692 204.574 6.42966 202.214 3.85779 200.298L0 197.432L27.8432 156.012C30.2194 157.767 33.4901 160.004 37.6275 162.734C41.7648 165.44 49.103 169.061 59.656 173.608C70.237 178.131 79.588 180.38 87.7229 180.38C111.205 180.38 122.946 173.312 122.946 159.176C122.946 156.21 122.108 153.467 120.43 150.921C118.753 148.388 115.79 145.855 111.541 143.31C107.291 140.777 103.545 138.763 100.303 137.28C97.0599 135.797 91.7204 133.548 84.3124 130.508C76.8903 127.444 71.4111 125.121 67.8748 123.539C53.0307 117.089 41.5691 109.008 33.4901 99.3204C25.3971 89.6328 21.3576 79.2039 21.3576 68.0335C21.3576 48.6337 29.4366 32.7802 45.6226 20.4854C61.8365 8.16593 80.3008 2 101.029 2Z" fill="white"/>
</mask>
<g mask="url(#mask0_6_20)">
<path d="M216.318 64.6193H181.717C122.496 53.1408 109.313 41.3061 96.4926 -11.811V-41.5837H92.1155V-11.5011C79.3301 41.3525 66.095 53.1563 6.97795 64.6193H-18.264V68.5384H6.97795C66.095 79.9859 79.3301 91.7897 92.1155 144.643V174.184H96.4926V144.953C109.313 91.8516 122.496 80.0169 181.717 68.5384H216.318V64.6193Z" fill="#242526"/>
</g>
</svg>
